<svg width="640" height="400" viewBox="0 0 640 400" fill="none" xmlns="http://www.w3.org/2000/svg">
<rect width="640" height="400" rx="10" fill="#BE2A7A"/>
<path d="M198.066 200.46C193.098 200.46 189.295 199.126 186.658 196.458C184.021 193.759 182.702 190.095 182.702 185.464C182.702 180.557 183.975 176.739 186.52 174.01C189.096 171.281 192.929 169.916 198.02 169.916C199.799 169.916 201.393 170.054 202.804 170.33C204.245 170.575 205.595 170.928 206.852 171.388V176.816C204.245 175.743 201.455 175.206 198.48 175.206C195.107 175.206 192.684 176.049 191.212 177.736C189.74 179.423 189.004 181.999 189.004 185.464C189.004 191.965 192.193 195.216 198.572 195.216C200.013 195.216 201.439 195.093 202.85 194.848C204.261 194.572 205.61 194.173 206.898 193.652V199.126C205.641 199.525 204.291 199.847 202.85 200.092C201.439 200.337 199.845 200.46 198.066 200.46ZM222.106 200.46C218.027 200.46 215.037 199.479 213.136 197.516C211.235 195.523 210.284 192.717 210.284 189.098C210.284 185.479 211.235 182.689 213.136 180.726C215.068 178.733 218.058 177.736 222.106 177.736C226.185 177.736 229.175 178.733 231.076 180.726C233.008 182.689 233.974 185.479 233.974 189.098C233.974 192.717 233.023 195.523 231.122 197.516C229.221 199.479 226.215 200.46 222.106 200.46ZM222.106 195.17C224.099 195.17 225.525 194.725 226.384 193.836C227.243 192.916 227.672 191.337 227.672 189.098C227.672 186.859 227.243 185.295 226.384 184.406C225.525 183.486 224.099 183.026 222.106 183.026C220.143 183.026 218.733 183.486 217.874 184.406C217.015 185.295 216.586 186.859 216.586 189.098C216.586 191.337 217.015 192.916 217.874 193.836C218.733 194.725 220.143 195.17 222.106 195.17ZM238.292 200V178.196H244.042L244.272 180.312C245.315 179.515 246.449 178.886 247.676 178.426C248.933 177.966 250.283 177.736 251.724 177.736C253.257 177.736 254.438 177.966 255.266 178.426C256.125 178.886 256.784 179.545 257.244 180.404C258.256 179.607 259.406 178.963 260.694 178.472C262.013 177.981 263.561 177.736 265.34 177.736C267.855 177.736 269.71 178.395 270.906 179.714C272.102 181.002 272.7 182.98 272.7 185.648V200H266.582V186.338C266.582 184.897 266.275 183.869 265.662 183.256C265.049 182.612 264.067 182.29 262.718 182.29C260.878 182.29 259.345 182.949 258.118 184.268C258.271 184.789 258.348 185.418 258.348 186.154V200H252.552V186.338C252.552 184.989 252.322 183.977 251.862 183.302C251.402 182.627 250.513 182.29 249.194 182.29C248.274 182.29 247.4 182.535 246.572 183.026C245.775 183.486 245.054 184.023 244.41 184.636V200H238.292ZM279.296 174.194V169.318H286.058V174.194H279.296ZM279.802 200V182.796H276.536L277.088 178.196H286.012V200H279.802ZM291.3 200V178.196H297.05L297.28 180.266C298.169 179.591 299.288 179.009 300.638 178.518C302.018 177.997 303.459 177.736 304.962 177.736C307.844 177.736 309.945 178.411 311.264 179.76C312.582 181.109 313.242 183.195 313.242 186.016V200H307.032V186.338C307.032 184.866 306.725 183.823 306.112 183.21C305.529 182.597 304.425 182.29 302.8 182.29C301.849 182.29 300.883 182.505 299.902 182.934C298.951 183.363 298.154 183.9 297.51 184.544V200H291.3ZM327.498 208.096C325.872 208.096 324.201 207.989 322.484 207.774C320.797 207.559 319.371 207.253 318.206 206.854V202.208C319.432 202.607 320.874 202.913 322.53 203.128C324.186 203.373 325.734 203.496 327.176 203.496C329.292 203.496 330.825 203.373 331.776 203.128C332.726 202.913 333.202 202.515 333.202 201.932C333.202 201.441 332.987 201.104 332.558 200.92C332.159 200.736 331.3 200.644 329.982 200.644H324.048C320.153 200.644 318.206 199.203 318.206 196.32C318.206 195.431 318.451 194.618 318.942 193.882C319.432 193.146 320.214 192.563 321.288 192.134C318.804 190.877 317.562 188.761 317.562 185.786C317.562 182.965 318.436 180.925 320.184 179.668C321.932 178.38 324.523 177.736 327.958 177.736C328.663 177.736 329.43 177.797 330.258 177.92C331.116 178.012 331.76 178.104 332.19 178.196H340.378L340.24 182.106H336.79C337.74 182.995 338.216 184.237 338.216 185.832C338.216 188.071 337.51 189.865 336.1 191.214C334.689 192.533 332.604 193.192 329.844 193.192C329.353 193.192 328.878 193.177 328.418 193.146C327.988 193.085 327.544 193.023 327.084 192.962C326.164 193.085 325.382 193.299 324.738 193.606C324.124 193.913 323.818 194.327 323.818 194.848C323.818 195.553 324.446 195.906 325.704 195.906H331.868C334.076 195.906 335.778 196.412 336.974 197.424C338.17 198.405 338.768 199.847 338.768 201.748C338.768 203.895 337.802 205.489 335.87 206.532C333.938 207.575 331.147 208.096 327.498 208.096ZM328.004 189.696C329.844 189.696 331.116 189.389 331.822 188.776C332.558 188.132 332.926 187.059 332.926 185.556C332.926 184.053 332.558 182.965 331.822 182.29C331.116 181.615 329.844 181.278 328.004 181.278C326.256 181.278 324.998 181.615 324.232 182.29C323.465 182.934 323.082 184.023 323.082 185.556C323.082 186.967 323.434 188.009 324.14 188.684C324.876 189.359 326.164 189.696 328.004 189.696ZM363.435 200.46C361.534 200.46 359.755 200.322 358.099 200.046C356.474 199.77 355.063 199.371 353.867 198.85V193.376C355.217 193.928 356.673 194.373 358.237 194.71C359.801 195.047 361.335 195.216 362.837 195.216C364.984 195.216 366.563 195.017 367.575 194.618C368.587 194.219 369.093 193.315 369.093 191.904C369.093 191.015 368.879 190.309 368.449 189.788C368.02 189.267 367.269 188.807 366.195 188.408C365.153 187.979 363.665 187.503 361.733 186.982C358.636 186.123 356.459 185.05 355.201 183.762C353.944 182.474 353.315 180.695 353.315 178.426C353.315 175.697 354.312 173.596 356.305 172.124C358.299 170.652 361.197 169.916 364.999 169.916C366.778 169.916 368.434 170.039 369.967 170.284C371.501 170.529 372.743 170.821 373.693 171.158V176.632C371.179 175.681 368.557 175.206 365.827 175.206C363.895 175.206 362.377 175.421 361.273 175.85C360.169 176.249 359.617 177.107 359.617 178.426C359.617 179.193 359.817 179.806 360.215 180.266C360.614 180.726 361.289 181.14 362.239 181.508C363.221 181.876 364.585 182.29 366.333 182.75C368.756 183.394 370.627 184.161 371.945 185.05C373.264 185.939 374.169 186.951 374.659 188.086C375.181 189.221 375.441 190.493 375.441 191.904C375.441 194.48 374.46 196.55 372.497 198.114C370.535 199.678 367.514 200.46 363.435 200.46ZM390.653 200.46C386.574 200.46 383.584 199.479 381.683 197.516C379.782 195.523 378.831 192.717 378.831 189.098C378.831 185.479 379.782 182.689 381.683 180.726C383.615 178.733 386.605 177.736 390.653 177.736C394.732 177.736 397.722 178.733 399.623 180.726C401.555 182.689 402.521 185.479 402.521 189.098C402.521 192.717 401.57 195.523 399.669 197.516C397.768 199.479 394.762 200.46 390.653 200.46ZM390.653 195.17C392.646 195.17 394.072 194.725 394.931 193.836C395.79 192.916 396.219 191.337 396.219 189.098C396.219 186.859 395.79 185.295 394.931 184.406C394.072 183.486 392.646 183.026 390.653 183.026C388.69 183.026 387.28 183.486 386.421 184.406C385.562 185.295 385.133 186.859 385.133 189.098C385.133 191.337 385.562 192.916 386.421 193.836C387.28 194.725 388.69 195.17 390.653 195.17ZM417.741 200.46C413.662 200.46 410.672 199.479 408.771 197.516C406.869 195.523 405.919 192.717 405.919 189.098C405.919 185.479 406.869 182.689 408.771 180.726C410.703 178.733 413.693 177.736 417.741 177.736C421.819 177.736 424.809 178.733 426.711 180.726C428.643 182.689 429.609 185.479 429.609 189.098C429.609 192.717 428.658 195.523 426.757 197.516C424.855 199.479 421.85 200.46 417.741 200.46ZM417.741 195.17C419.734 195.17 421.16 194.725 422.019 193.836C422.877 192.916 423.307 191.337 423.307 189.098C423.307 186.859 422.877 185.295 422.019 184.406C421.16 183.486 419.734 183.026 417.741 183.026C415.778 183.026 414.367 183.486 413.509 184.406C412.65 185.295 412.221 186.859 412.221 189.098C412.221 191.337 412.65 192.916 413.509 193.836C414.367 194.725 415.778 195.17 417.741 195.17ZM433.927 200V178.196H439.677L439.907 180.266C440.796 179.591 441.915 179.009 443.265 178.518C444.645 177.997 446.086 177.736 447.589 177.736C450.471 177.736 452.572 178.411 453.891 179.76C455.209 181.109 455.869 183.195 455.869 186.016V200H449.659V186.338C449.659 184.866 449.352 183.823 448.739 183.21C448.156 182.597 447.052 182.29 445.427 182.29C444.476 182.29 443.51 182.505 442.529 182.934C441.578 183.363 440.781 183.9 440.137 184.544V200H433.927Z" fill="#FAFAFA"/>
<path opacity="0.5" d="M226 324H640V390C640 395.523 635.523 400 630 400H226V324Z" fill="#FAFAFA"/>
<path d="M378.93 366.55V362.8H390.78V366.55H378.93ZM392.641 366.55V362.8H404.491V366.55H392.641ZM406.352 366.55V362.8H418.202V366.55H406.352ZM420.063 366.55V362.8H431.913V366.55H420.063ZM433.774 366.55V362.8H445.624V366.55H433.774ZM447.485 366.55V362.8H459.335V366.55H447.485ZM461.196 366.55V362.8H473.046V366.55H461.196ZM474.907 366.55V362.8H486.757V366.55H474.907Z" fill="#FAFAFA"/>
</svg>
