<svg width="160" height="50" viewBox="0 0 160 50" fill="none" xmlns="http://www.w3.org/2000/svg">
<rect width="160" height="50" rx="5" fill="#FF6EBC"/>
<path d="M46.8582 34V17.9H53.3832C55.7665 17.9 57.5332 18.5333 58.6832 19.8C59.8332 21.05 60.4082 23.1333 60.4082 26.05C60.4082 28.8 59.8415 30.8167 58.7082 32.1C57.5749 33.3667 55.7999 34 53.3832 34H46.8582ZM49.5832 31.9H52.9582C54.0082 31.9 54.8832 31.75 55.5832 31.45C56.2832 31.1333 56.8082 30.55 57.1582 29.7C57.5082 28.85 57.6832 27.6333 57.6832 26.05C57.6832 24.4667 57.5249 23.2417 57.2082 22.375C56.8915 21.5083 56.3832 20.9 55.6832 20.55C54.9999 20.2 54.0915 20.025 52.9582 20.025H49.5832V31.9ZM66.4273 34.25C65.6773 34.25 64.9773 34.1167 64.3273 33.85C63.694 33.5833 63.1857 33.1833 62.8023 32.65C62.419 32.1 62.2273 31.425 62.2273 30.625C62.2273 29.4917 62.6107 28.5833 63.3773 27.9C64.1607 27.2 65.3607 26.85 66.9773 26.85H70.7773V26.325C70.7773 25.7583 70.6857 25.3083 70.5023 24.975C70.3357 24.6417 70.019 24.4 69.5523 24.25C69.1023 24.1 68.4357 24.025 67.5523 24.025C66.1523 24.025 64.844 24.2333 63.6273 24.65V22.625C64.1607 22.4083 64.8107 22.2333 65.5773 22.1C66.344 21.9667 67.169 21.9 68.0523 21.9C69.7857 21.9 71.1023 22.25 72.0023 22.95C72.919 23.65 73.3773 24.7917 73.3773 26.375V34H71.0523L70.8773 32.8C70.394 33.2667 69.794 33.625 69.0773 33.875C68.3773 34.125 67.494 34.25 66.4273 34.25ZM67.1523 32.3C67.969 32.3 68.6773 32.1667 69.2773 31.9C69.894 31.6167 70.394 31.2417 70.7773 30.775V28.7H67.0273C66.2273 28.7 65.644 28.8583 65.2773 29.175C64.9273 29.475 64.7523 29.9417 64.7523 30.575C64.7523 31.1917 64.9607 31.6333 65.3773 31.9C65.794 32.1667 66.3857 32.3 67.1523 32.3ZM77.1242 34V24.275H75.3992V22.15H77.1242V20.7C77.1242 19.5167 77.4492 18.5667 78.0992 17.85C78.7659 17.1167 79.7492 16.75 81.0492 16.75C81.5326 16.75 81.9742 16.7917 82.3742 16.875C82.7742 16.9417 83.1409 17.0417 83.4742 17.175V19.125C82.9576 18.9417 82.4326 18.85 81.8992 18.85C81.1159 18.85 80.5742 18.9917 80.2742 19.275C79.9742 19.5583 79.8242 20.0417 79.8242 20.725V22.15H82.9242L82.7992 24.275H79.8242V34H77.1242ZM89.1762 34.25C87.9095 34.25 86.9595 33.9167 86.3262 33.25C85.7095 32.5667 85.4012 31.6417 85.4012 30.475V24.275H83.6512V22.15H85.4012V19.425L88.1012 18.6V22.15H91.2512L91.0762 24.275H88.1012V30.325C88.1012 31.0083 88.2595 31.4917 88.5762 31.775C88.8928 32.0417 89.4095 32.175 90.1262 32.175C90.5762 32.175 91.0512 32.0917 91.5512 31.925V33.85C90.9012 34.1167 90.1095 34.25 89.1762 34.25ZM97.3355 34.25C96.5855 34.25 95.8855 34.1167 95.2355 33.85C94.6022 33.5833 94.0939 33.1833 93.7105 32.65C93.3272 32.1 93.1355 31.425 93.1355 30.625C93.1355 29.4917 93.5189 28.5833 94.2855 27.9C95.0689 27.2 96.2689 26.85 97.8855 26.85H101.686V26.325C101.686 25.7583 101.594 25.3083 101.411 24.975C101.244 24.6417 100.927 24.4 100.461 24.25C100.011 24.1 99.3439 24.025 98.4605 24.025C97.0605 24.025 95.7522 24.2333 94.5355 24.65V22.625C95.0689 22.4083 95.7189 22.2333 96.4855 22.1C97.2522 21.9667 98.0772 21.9 98.9605 21.9C100.694 21.9 102.011 22.25 102.911 22.95C103.827 23.65 104.286 24.7917 104.286 26.375V34H101.961L101.786 32.8C101.302 33.2667 100.702 33.625 99.9855 33.875C99.2855 34.125 98.4022 34.25 97.3355 34.25ZM98.0605 32.3C98.8772 32.3 99.5855 32.1667 100.186 31.9C100.802 31.6167 101.302 31.2417 101.686 30.775V28.7H97.9355C97.1355 28.7 96.5522 28.8583 96.1855 29.175C95.8355 29.475 95.6605 29.9417 95.6605 30.575C95.6605 31.1917 95.8689 31.6333 96.2855 31.9C96.7022 32.1667 97.2939 32.3 98.0605 32.3ZM107.307 34V22.15H109.807L109.957 23.525C110.524 23.1583 111.199 22.825 111.982 22.525C112.766 22.225 113.541 22.0167 114.307 21.9V23.975C113.841 24.0583 113.332 24.1833 112.782 24.35C112.249 24.5 111.741 24.675 111.257 24.875C110.774 25.0583 110.366 25.25 110.032 25.45V34H107.307Z" fill="#3F0C2A"/>
</svg>
