<svg width="70" height="9" viewBox="0 0 70 9" fill="none" xmlns="http://www.w3.org/2000/svg">
<path d="M1.48945 5.89C1.14945 5.89 0.859453 5.77333 0.619453 5.54C0.38612 5.3 0.269453 5.01 0.269453 4.67C0.269453 4.32333 0.38612 4.03333 0.619453 3.8C0.859453 3.56 1.14945 3.44 1.48945 3.44C1.83612 3.44 2.12945 3.56 2.36945 3.8C2.60945 4.03333 2.72945 4.32333 2.72945 4.67C2.72945 5.01 2.60945 5.3 2.36945 5.54C2.12945 5.77333 1.83612 5.89 1.48945 5.89ZM11.94 1.03C12.7 1.03 13.3567 1.17333 13.91 1.46C14.47 1.74 14.8967 2.14333 15.19 2.67C15.49 3.19667 15.64 3.81667 15.64 4.53C15.64 5.24333 15.49 5.86333 15.19 6.39C14.8967 6.91 14.47 7.31 13.91 7.59C13.3567 7.86333 12.7 8 11.94 8H9.77V1.03H11.94ZM11.94 7.25C12.84 7.25 13.5267 7.01333 14 6.54C14.4733 6.06 14.71 5.39 14.71 4.53C14.71 3.66333 14.47 2.98667 13.99 2.5C13.5167 2.01333 12.8333 1.77 11.94 1.77H10.68V7.25H11.94ZM16.5003 5.24C16.5003 4.68 16.6136 4.19 16.8403 3.77C17.067 3.34333 17.377 3.01333 17.7703 2.78C18.1703 2.54667 18.6136 2.43 19.1003 2.43C19.5803 2.43 19.997 2.53333 20.3503 2.74C20.7036 2.94667 20.967 3.20667 21.1403 3.52V2.52H22.0603V8H21.1403V6.98C20.9603 7.3 20.6903 7.56667 20.3303 7.78C19.977 7.98667 19.5636 8.09 19.0903 8.09C18.6036 8.09 18.1636 7.97 17.7703 7.73C17.377 7.49 17.067 7.15333 16.8403 6.72C16.6136 6.28667 16.5003 5.79333 16.5003 5.24ZM21.1403 5.25C21.1403 4.83667 21.057 4.47667 20.8903 4.17C20.7236 3.86333 20.497 3.63 20.2103 3.47C19.9303 3.30333 19.6203 3.22 19.2803 3.22C18.9403 3.22 18.6303 3.3 18.3503 3.46C18.0703 3.62 17.847 3.85333 17.6803 4.16C17.5136 4.46667 17.4303 4.82667 17.4303 5.24C17.4303 5.66 17.5136 6.02667 17.6803 6.34C17.847 6.64667 18.0703 6.88333 18.3503 7.05C18.6303 7.21 18.9403 7.29 19.2803 7.29C19.6203 7.29 19.9303 7.21 20.2103 7.05C20.497 6.88333 20.7236 6.64667 20.8903 6.34C21.057 6.02667 21.1403 5.66333 21.1403 5.25ZM25.8281 3.27H24.6781V8H23.7681V3.27H23.0581V2.52H23.7681V2.13C23.7681 1.51667 23.9248 1.07 24.2381 0.79C24.5581 0.503333 25.0681 0.359999 25.7681 0.359999V1.12C25.3681 1.12 25.0848 1.2 24.9181 1.36C24.7581 1.51333 24.6781 1.77 24.6781 2.13V2.52H25.8281V3.27ZM27.9991 3.27V6.5C27.9991 6.76667 28.0558 6.95667 28.1691 7.07C28.2825 7.17667 28.4791 7.23 28.7591 7.23H29.4291V8H28.6091C28.1025 8 27.7225 7.88333 27.4691 7.65C27.2158 7.41667 27.0891 7.03333 27.0891 6.5V3.27H26.3791V2.52H27.0891V1.14H27.9991V2.52H29.4291V3.27H27.9991ZM30.1917 5.24C30.1917 4.68 30.3051 4.19 30.5317 3.77C30.7584 3.34333 31.0684 3.01333 31.4617 2.78C31.8617 2.54667 32.3051 2.43 32.7917 2.43C33.2717 2.43 33.6884 2.53333 34.0417 2.74C34.3951 2.94667 34.6584 3.20667 34.8317 3.52V2.52H35.7517V8H34.8317V6.98C34.6517 7.3 34.3817 7.56667 34.0217 7.78C33.6684 7.98667 33.2551 8.09 32.7817 8.09C32.2951 8.09 31.8551 7.97 31.4617 7.73C31.0684 7.49 30.7584 7.15333 30.5317 6.72C30.3051 6.28667 30.1917 5.79333 30.1917 5.24ZM34.8317 5.25C34.8317 4.83667 34.7484 4.47667 34.5817 4.17C34.4151 3.86333 34.1884 3.63 33.9017 3.47C33.6217 3.30333 33.3117 3.22 32.9717 3.22C32.6317 3.22 32.3217 3.3 32.0417 3.46C31.7617 3.62 31.5384 3.85333 31.3717 4.16C31.2051 4.46667 31.1217 4.82667 31.1217 5.24C31.1217 5.66 31.2051 6.02667 31.3717 6.34C31.5384 6.64667 31.7617 6.88333 32.0417 7.05C32.3217 7.21 32.6317 7.29 32.9717 7.29C33.3117 7.29 33.6217 7.21 33.9017 7.05C34.1884 6.88333 34.4151 6.64667 34.5817 6.34C34.7484 6.02667 34.8317 5.66333 34.8317 5.25ZM38.1995 3.41C38.3595 3.09667 38.5862 2.85333 38.8795 2.68C39.1795 2.50667 39.5429 2.42 39.9695 2.42V3.36H39.7295C38.7095 3.36 38.1995 3.91333 38.1995 5.02V8H37.2895V2.52H38.1995V3.41ZM47.466 8L44.596 4.82V8H43.686V1.03H44.596V4.26L47.476 1.03H48.626L45.466 4.52L48.656 8H47.466ZM54.6723 5.05C54.6723 5.22333 54.6623 5.40667 54.6423 5.6H50.2623C50.2957 6.14 50.479 6.56333 50.8123 6.87C51.1523 7.17 51.5623 7.32 52.0423 7.32C52.4357 7.32 52.7623 7.23 53.0223 7.05C53.289 6.86333 53.4757 6.61667 53.5823 6.31H54.5623C54.4157 6.83667 54.1223 7.26667 53.6823 7.6C53.2423 7.92667 52.6957 8.09 52.0423 8.09C51.5223 8.09 51.0557 7.97333 50.6423 7.74C50.2357 7.50667 49.9157 7.17667 49.6823 6.75C49.449 6.31667 49.3323 5.81667 49.3323 5.25C49.3323 4.68333 49.4457 4.18667 49.6723 3.76C49.899 3.33333 50.2157 3.00667 50.6223 2.78C51.0357 2.54667 51.509 2.43 52.0423 2.43C52.5623 2.43 53.0223 2.54333 53.4223 2.77C53.8223 2.99667 54.129 3.31 54.3423 3.71C54.5623 4.10333 54.6723 4.55 54.6723 5.05ZM53.7323 4.86C53.7323 4.51333 53.6557 4.21667 53.5023 3.97C53.349 3.71667 53.139 3.52667 52.8723 3.4C52.6123 3.26667 52.3223 3.2 52.0023 3.2C51.5423 3.2 51.149 3.34667 50.8223 3.64C50.5023 3.93333 50.319 4.34 50.2723 4.86H53.7323ZM56.7835 0.6V8H55.8735V0.6H56.7835ZM57.9945 5.24C57.9945 4.68 58.1078 4.19 58.3345 3.77C58.5611 3.34333 58.8711 3.01333 59.2645 2.78C59.6645 2.54667 60.1078 2.43 60.5945 2.43C61.0745 2.43 61.4911 2.53333 61.8445 2.74C62.1978 2.94667 62.4611 3.20667 62.6345 3.52V2.52H63.5545V8H62.6345V6.98C62.4545 7.3 62.1845 7.56667 61.8245 7.78C61.4711 7.98667 61.0578 8.09 60.5845 8.09C60.0978 8.09 59.6578 7.97 59.2645 7.73C58.8711 7.49 58.5611 7.15333 58.3345 6.72C58.1078 6.28667 57.9945 5.79333 57.9945 5.24ZM62.6345 5.25C62.6345 4.83667 62.5511 4.47667 62.3845 4.17C62.2178 3.86333 61.9911 3.63 61.7045 3.47C61.4245 3.30333 61.1145 3.22 60.7745 3.22C60.4345 3.22 60.1245 3.3 59.8445 3.46C59.5645 3.62 59.3411 3.85333 59.1745 4.16C59.0078 4.46667 58.9245 4.82667 58.9245 5.24C58.9245 5.66 59.0078 6.02667 59.1745 6.34C59.3411 6.64667 59.5645 6.88333 59.8445 7.05C60.1245 7.21 60.4345 7.29 60.7745 7.29C61.1145 7.29 61.4245 7.21 61.7045 7.05C61.9911 6.88333 62.2178 6.64667 62.3845 6.34C62.5511 6.02667 62.6345 5.66333 62.6345 5.25ZM67.0323 8.09C66.6123 8.09 66.2356 8.02 65.9023 7.88C65.5689 7.73333 65.3056 7.53333 65.1123 7.28C64.9189 7.02 64.8123 6.72333 64.7923 6.39H65.7323C65.7589 6.66333 65.8856 6.88667 66.1123 7.06C66.3456 7.23333 66.6489 7.32 67.0223 7.32C67.3689 7.32 67.6423 7.24333 67.8423 7.09C68.0423 6.93667 68.1423 6.74333 68.1423 6.51C68.1423 6.27 68.0356 6.09333 67.8223 5.98C67.6089 5.86 67.2789 5.74333 66.8323 5.63C66.4256 5.52333 66.0923 5.41667 65.8323 5.31C65.5789 5.19667 65.3589 5.03333 65.1723 4.82C64.9923 4.6 64.9023 4.31333 64.9023 3.96C64.9023 3.68 64.9856 3.42333 65.1523 3.19C65.3189 2.95667 65.5556 2.77333 65.8623 2.64C66.1689 2.5 66.5189 2.43 66.9123 2.43C67.5189 2.43 68.0089 2.58333 68.3823 2.89C68.7556 3.19667 68.9556 3.61667 68.9823 4.15H68.0723C68.0523 3.86333 67.9356 3.63333 67.7223 3.46C67.5156 3.28667 67.2356 3.2 66.8823 3.2C66.5556 3.2 66.2956 3.27 66.1023 3.41C65.9089 3.55 65.8123 3.73333 65.8123 3.96C65.8123 4.14 65.8689 4.29 65.9823 4.41C66.1023 4.52333 66.2489 4.61667 66.4223 4.69C66.6023 4.75667 66.8489 4.83333 67.1623 4.92C67.5556 5.02667 67.8756 5.13333 68.1223 5.24C68.3689 5.34 68.5789 5.49333 68.7523 5.7C68.9323 5.90667 69.0256 6.17667 69.0323 6.51C69.0323 6.81 68.9489 7.08 68.7823 7.32C68.6156 7.56 68.3789 7.75 68.0723 7.89C67.7723 8.02333 67.4256 8.09 67.0323 8.09Z" fill="#BE2A7A"/>
</svg>
