<svg width="492" height="500" viewBox="0 0 492 500" fill="none" xmlns="http://www.w3.org/2000/svg">
<g opacity="0.2">
<mask id="mask0_44_295" style="mask-type:alpha" maskUnits="userSpaceOnUse" x="-160" y="-152" width="546" height="546">
<circle cx="112.92" cy="120.92" r="272.5" transform="rotate(-55.5 112.92 120.92)" fill="#FF6EBC"/>
</mask>
<g mask="url(#mask0_44_295)">
<line x1="-374.559" y1="247.586" x2="79.1323" y2="-412.539" stroke="#FF6EBC" stroke-width="5"/>
<line x1="-366.318" y1="253.25" x2="87.3735" y2="-406.875" stroke="#FF6EBC" stroke-width="5"/>
<line x1="-358.077" y1="258.914" x2="95.6147" y2="-401.211" stroke="#FF6EBC" stroke-width="5"/>
<line x1="-349.835" y1="264.578" x2="103.856" y2="-395.547" stroke="#FF6EBC" stroke-width="5"/>
<line x1="-341.594" y1="270.242" x2="112.097" y2="-389.883" stroke="#FF6EBC" stroke-width="5"/>
<line x1="-333.353" y1="275.906" x2="120.339" y2="-384.219" stroke="#FF6EBC" stroke-width="5"/>
<line x1="-325.112" y1="281.57" x2="128.58" y2="-378.555" stroke="#FF6EBC" stroke-width="5"/>
<line x1="-316.87" y1="287.234" x2="136.821" y2="-372.891" stroke="#FF6EBC" stroke-width="5"/>
<line x1="-308.629" y1="292.899" x2="145.062" y2="-367.227" stroke="#FF6EBC" stroke-width="5"/>
<line x1="-300.388" y1="298.563" x2="153.304" y2="-361.562" stroke="#FF6EBC" stroke-width="5"/>
<line x1="-292.146" y1="304.227" x2="161.545" y2="-355.898" stroke="#FF6EBC" stroke-width="5"/>
<line x1="-283.905" y1="309.891" x2="169.786" y2="-350.234" stroke="#FF6EBC" stroke-width="5"/>
<line x1="-275.664" y1="315.555" x2="178.027" y2="-344.57" stroke="#FF6EBC" stroke-width="5"/>
<line x1="-267.423" y1="321.219" x2="186.269" y2="-338.906" stroke="#FF6EBC" stroke-width="5"/>
<line x1="-259.181" y1="326.883" x2="194.51" y2="-333.242" stroke="#FF6EBC" stroke-width="5"/>
<line x1="-250.94" y1="332.547" x2="202.751" y2="-327.578" stroke="#FF6EBC" stroke-width="5"/>
<line x1="-242.699" y1="338.211" x2="210.992" y2="-321.914" stroke="#FF6EBC" stroke-width="5"/>
<line x1="-234.458" y1="343.875" x2="219.234" y2="-316.25" stroke="#FF6EBC" stroke-width="5"/>
<line x1="-226.216" y1="349.539" x2="227.475" y2="-310.586" stroke="#FF6EBC" stroke-width="5"/>
<line x1="-217.975" y1="355.203" x2="235.716" y2="-304.922" stroke="#FF6EBC" stroke-width="5"/>
<line x1="-209.734" y1="360.867" x2="243.957" y2="-299.258" stroke="#FF6EBC" stroke-width="5"/>
<line x1="-201.493" y1="366.531" x2="252.199" y2="-293.594" stroke="#FF6EBC" stroke-width="5"/>
<line x1="-193.251" y1="372.195" x2="260.44" y2="-287.93" stroke="#FF6EBC" stroke-width="5"/>
<line x1="-185.01" y1="377.859" x2="268.681" y2="-282.266" stroke="#FF6EBC" stroke-width="5"/>
<line x1="-176.769" y1="383.523" x2="276.923" y2="-276.602" stroke="#FF6EBC" stroke-width="5"/>
<line x1="-168.528" y1="389.188" x2="285.164" y2="-270.937" stroke="#FF6EBC" stroke-width="5"/>
<line x1="-160.286" y1="394.852" x2="293.405" y2="-265.273" stroke="#FF6EBC" stroke-width="5"/>
<line x1="-152.045" y1="400.516" x2="301.646" y2="-259.609" stroke="#FF6EBC" stroke-width="5"/>
<line x1="-143.804" y1="406.18" x2="309.888" y2="-253.945" stroke="#FF6EBC" stroke-width="5"/>
<line x1="-135.563" y1="411.844" x2="318.129" y2="-248.281" stroke="#FF6EBC" stroke-width="5"/>
<line x1="-127.321" y1="417.508" x2="326.37" y2="-242.617" stroke="#FF6EBC" stroke-width="5"/>
<line x1="-119.08" y1="423.172" x2="334.611" y2="-236.953" stroke="#FF6EBC" stroke-width="5"/>
<line x1="-110.839" y1="428.836" x2="342.853" y2="-231.289" stroke="#FF6EBC" stroke-width="5"/>
<line x1="-102.597" y1="434.5" x2="351.094" y2="-225.625" stroke="#FF6EBC" stroke-width="5"/>
<line x1="-94.3562" y1="440.164" x2="359.335" y2="-219.961" stroke="#FF6EBC" stroke-width="5"/>
<line x1="-86.115" y1="445.828" x2="367.576" y2="-214.297" stroke="#FF6EBC" stroke-width="5"/>
<line x1="-77.8738" y1="451.492" x2="375.818" y2="-208.633" stroke="#FF6EBC" stroke-width="5"/>
<line x1="-69.6323" y1="457.156" x2="384.059" y2="-202.969" stroke="#FF6EBC" stroke-width="5"/>
<line x1="-61.3911" y1="462.82" x2="392.3" y2="-197.305" stroke="#FF6EBC" stroke-width="5"/>
<line x1="-53.1499" y1="468.484" x2="400.541" y2="-191.641" stroke="#FF6EBC" stroke-width="5"/>
<line x1="-44.9087" y1="474.148" x2="408.783" y2="-185.977" stroke="#FF6EBC" stroke-width="5"/>
<line x1="-36.6675" y1="479.813" x2="417.024" y2="-180.312" stroke="#FF6EBC" stroke-width="5"/>
<line x1="-28.426" y1="485.477" x2="425.265" y2="-174.648" stroke="#FF6EBC" stroke-width="5"/>
<line x1="-20.1848" y1="491.141" x2="433.507" y2="-168.984" stroke="#FF6EBC" stroke-width="5"/>
<line x1="-11.9436" y1="496.805" x2="441.748" y2="-163.32" stroke="#FF6EBC" stroke-width="5"/>
<line x1="-3.70241" y1="502.469" x2="449.989" y2="-157.656" stroke="#FF6EBC" stroke-width="5"/>
<line x1="4.53881" y1="508.133" x2="458.23" y2="-151.992" stroke="#FF6EBC" stroke-width="5"/>
<line x1="12.7803" y1="513.797" x2="466.472" y2="-146.328" stroke="#FF6EBC" stroke-width="5"/>
<line x1="21.0215" y1="519.461" x2="474.713" y2="-140.664" stroke="#FF6EBC" stroke-width="5"/>
<line x1="29.2627" y1="525.125" x2="482.954" y2="-135" stroke="#FF6EBC" stroke-width="5"/>
<line x1="37.5039" y1="530.789" x2="491.195" y2="-129.336" stroke="#FF6EBC" stroke-width="5"/>
<line x1="45.7453" y1="536.453" x2="499.437" y2="-123.672" stroke="#FF6EBC" stroke-width="5"/>
<line x1="53.9866" y1="542.117" x2="507.678" y2="-118.008" stroke="#FF6EBC" stroke-width="5"/>
<line x1="62.2278" y1="547.781" x2="515.919" y2="-112.344" stroke="#FF6EBC" stroke-width="5"/>
<line x1="70.469" y1="553.445" x2="524.16" y2="-106.68" stroke="#FF6EBC" stroke-width="5"/>
<line x1="78.7102" y1="559.109" x2="532.402" y2="-101.016" stroke="#FF6EBC" stroke-width="5"/>
<line x1="86.9516" y1="564.773" x2="540.643" y2="-95.3516" stroke="#FF6EBC" stroke-width="5"/>
<line x1="95.1929" y1="570.438" x2="548.884" y2="-89.6875" stroke="#FF6EBC" stroke-width="5"/>
<line x1="103.434" y1="576.102" x2="557.125" y2="-84.0234" stroke="#FF6EBC" stroke-width="5"/>
<line x1="111.675" y1="581.766" x2="565.367" y2="-78.3594" stroke="#FF6EBC" stroke-width="5"/>
<line x1="119.916" y1="587.43" x2="573.608" y2="-72.6953" stroke="#FF6EBC" stroke-width="5"/>
<line x1="128.158" y1="593.094" x2="581.849" y2="-67.0312" stroke="#FF6EBC" stroke-width="5"/>
<line x1="136.399" y1="598.758" x2="590.091" y2="-61.3672" stroke="#FF6EBC" stroke-width="5"/>
<line x1="144.64" y1="604.422" x2="598.332" y2="-55.7031" stroke="#FF6EBC" stroke-width="5"/>
<line x1="152.882" y1="610.086" x2="606.573" y2="-50.0391" stroke="#FF6EBC" stroke-width="5"/>
<line x1="161.123" y1="615.75" x2="614.814" y2="-44.375" stroke="#FF6EBC" stroke-width="5"/>
</g>
</g>
</svg>
