<svg width="758" height="758" viewBox="0 0 758 758" fill="none" xmlns="http://www.w3.org/2000/svg">
<g opacity="0.2">
<mask id="mask0_82_22" style="mask-type:alpha" maskUnits="userSpaceOnUse" x="106" y="106" width="546" height="546">
<circle cx="378.92" cy="378.92" r="272.5" transform="rotate(-55.5 378.92 378.92)" fill="#FF6EBC"/>
</mask>
<g mask="url(#mask0_82_22)">
<line x1="-108.559" y1="505.586" x2="345.132" y2="-154.539" stroke="#FF6EBC" stroke-width="5"/>
<line x1="-100.318" y1="511.25" x2="353.373" y2="-148.875" stroke="#FF6EBC" stroke-width="5"/>
<line x1="-92.0767" y1="516.914" x2="361.615" y2="-143.211" stroke="#FF6EBC" stroke-width="5"/>
<line x1="-83.8352" y1="522.578" x2="369.856" y2="-137.547" stroke="#FF6EBC" stroke-width="5"/>
<line x1="-75.594" y1="528.242" x2="378.097" y2="-131.883" stroke="#FF6EBC" stroke-width="5"/>
<line x1="-67.3528" y1="533.906" x2="386.339" y2="-126.219" stroke="#FF6EBC" stroke-width="5"/>
<line x1="-59.1116" y1="539.57" x2="394.58" y2="-120.555" stroke="#FF6EBC" stroke-width="5"/>
<line x1="-50.8704" y1="545.234" x2="402.821" y2="-114.891" stroke="#FF6EBC" stroke-width="5"/>
<line x1="-42.6289" y1="550.898" x2="411.062" y2="-109.227" stroke="#FF6EBC" stroke-width="5"/>
<line x1="-34.3877" y1="556.563" x2="419.304" y2="-103.563" stroke="#FF6EBC" stroke-width="5"/>
<line x1="-26.1465" y1="562.227" x2="427.545" y2="-97.8985" stroke="#FF6EBC" stroke-width="5"/>
<line x1="-17.9053" y1="567.891" x2="435.786" y2="-92.2344" stroke="#FF6EBC" stroke-width="5"/>
<line x1="-9.66408" y1="573.555" x2="444.027" y2="-86.5703" stroke="#FF6EBC" stroke-width="5"/>
<line x1="-1.42262" y1="579.219" x2="452.269" y2="-80.9063" stroke="#FF6EBC" stroke-width="5"/>
<line x1="6.81859" y1="584.883" x2="460.51" y2="-75.2422" stroke="#FF6EBC" stroke-width="5"/>
<line x1="15.0598" y1="590.547" x2="468.751" y2="-69.5781" stroke="#FF6EBC" stroke-width="5"/>
<line x1="23.301" y1="596.211" x2="476.992" y2="-63.9141" stroke="#FF6EBC" stroke-width="5"/>
<line x1="31.5425" y1="601.875" x2="485.234" y2="-58.25" stroke="#FF6EBC" stroke-width="5"/>
<line x1="39.7837" y1="607.539" x2="493.475" y2="-52.586" stroke="#FF6EBC" stroke-width="5"/>
<line x1="48.0249" y1="613.203" x2="501.716" y2="-46.9219" stroke="#FF6EBC" stroke-width="5"/>
<line x1="56.2661" y1="618.867" x2="509.957" y2="-41.2578" stroke="#FF6EBC" stroke-width="5"/>
<line x1="64.5073" y1="624.531" x2="518.199" y2="-35.5938" stroke="#FF6EBC" stroke-width="5"/>
<line x1="72.7488" y1="630.195" x2="526.44" y2="-29.9297" stroke="#FF6EBC" stroke-width="5"/>
<line x1="80.99" y1="635.859" x2="534.681" y2="-24.2656" stroke="#FF6EBC" stroke-width="5"/>
<line x1="89.2312" y1="641.523" x2="542.923" y2="-18.6016" stroke="#FF6EBC" stroke-width="5"/>
<line x1="97.4724" y1="647.188" x2="551.164" y2="-12.9375" stroke="#FF6EBC" stroke-width="5"/>
<line x1="105.714" y1="652.852" x2="559.405" y2="-7.27346" stroke="#FF6EBC" stroke-width="5"/>
<line x1="113.955" y1="658.516" x2="567.646" y2="-1.6094" stroke="#FF6EBC" stroke-width="5"/>
<line x1="122.196" y1="664.18" x2="575.888" y2="4.05466" stroke="#FF6EBC" stroke-width="5"/>
<line x1="130.437" y1="669.844" x2="584.129" y2="9.71872" stroke="#FF6EBC" stroke-width="5"/>
<line x1="138.679" y1="675.508" x2="592.37" y2="15.3828" stroke="#FF6EBC" stroke-width="5"/>
<line x1="146.92" y1="681.172" x2="600.611" y2="21.0469" stroke="#FF6EBC" stroke-width="5"/>
<line x1="155.161" y1="686.836" x2="608.853" y2="26.7109" stroke="#FF6EBC" stroke-width="5"/>
<line x1="163.403" y1="692.5" x2="617.094" y2="32.375" stroke="#FF6EBC" stroke-width="5"/>
<line x1="171.644" y1="698.164" x2="625.335" y2="38.039" stroke="#FF6EBC" stroke-width="5"/>
<line x1="179.885" y1="703.828" x2="633.576" y2="43.7031" stroke="#FF6EBC" stroke-width="5"/>
<line x1="188.126" y1="709.492" x2="641.818" y2="49.3672" stroke="#FF6EBC" stroke-width="5"/>
<line x1="196.368" y1="715.156" x2="650.059" y2="55.0312" stroke="#FF6EBC" stroke-width="5"/>
<line x1="204.609" y1="720.82" x2="658.3" y2="60.6953" stroke="#FF6EBC" stroke-width="5"/>
<line x1="212.85" y1="726.484" x2="666.541" y2="66.3594" stroke="#FF6EBC" stroke-width="5"/>
<line x1="221.091" y1="732.148" x2="674.783" y2="72.0234" stroke="#FF6EBC" stroke-width="5"/>
<line x1="229.333" y1="737.813" x2="683.024" y2="77.6875" stroke="#FF6EBC" stroke-width="5"/>
<line x1="237.574" y1="743.477" x2="691.265" y2="83.3515" stroke="#FF6EBC" stroke-width="5"/>
<line x1="245.815" y1="749.141" x2="699.507" y2="89.0156" stroke="#FF6EBC" stroke-width="5"/>
<line x1="254.056" y1="754.805" x2="707.748" y2="94.6797" stroke="#FF6EBC" stroke-width="5"/>
<line x1="262.298" y1="760.469" x2="715.989" y2="100.344" stroke="#FF6EBC" stroke-width="5"/>
<line x1="270.539" y1="766.133" x2="724.23" y2="106.008" stroke="#FF6EBC" stroke-width="5"/>
<line x1="278.78" y1="771.797" x2="732.472" y2="111.672" stroke="#FF6EBC" stroke-width="5"/>
<line x1="287.021" y1="777.461" x2="740.713" y2="117.336" stroke="#FF6EBC" stroke-width="5"/>
<line x1="295.263" y1="783.125" x2="748.954" y2="123" stroke="#FF6EBC" stroke-width="5"/>
<line x1="303.504" y1="788.789" x2="757.195" y2="128.664" stroke="#FF6EBC" stroke-width="5"/>
<line x1="311.745" y1="794.453" x2="765.437" y2="134.328" stroke="#FF6EBC" stroke-width="5"/>
<line x1="319.987" y1="800.117" x2="773.678" y2="139.992" stroke="#FF6EBC" stroke-width="5"/>
<line x1="328.228" y1="805.781" x2="781.919" y2="145.656" stroke="#FF6EBC" stroke-width="5"/>
<line x1="336.469" y1="811.445" x2="790.16" y2="151.32" stroke="#FF6EBC" stroke-width="5"/>
<line x1="344.71" y1="817.109" x2="798.402" y2="156.984" stroke="#FF6EBC" stroke-width="5"/>
<line x1="352.952" y1="822.773" x2="806.643" y2="162.648" stroke="#FF6EBC" stroke-width="5"/>
<line x1="361.193" y1="828.438" x2="814.884" y2="168.312" stroke="#FF6EBC" stroke-width="5"/>
<line x1="369.434" y1="834.102" x2="823.125" y2="173.977" stroke="#FF6EBC" stroke-width="5"/>
<line x1="377.675" y1="839.766" x2="831.367" y2="179.641" stroke="#FF6EBC" stroke-width="5"/>
<line x1="385.916" y1="845.43" x2="839.608" y2="185.305" stroke="#FF6EBC" stroke-width="5"/>
<line x1="394.158" y1="851.094" x2="847.849" y2="190.969" stroke="#FF6EBC" stroke-width="5"/>
<line x1="402.399" y1="856.758" x2="856.091" y2="196.633" stroke="#FF6EBC" stroke-width="5"/>
<line x1="410.64" y1="862.422" x2="864.332" y2="202.297" stroke="#FF6EBC" stroke-width="5"/>
<line x1="418.882" y1="868.086" x2="872.573" y2="207.961" stroke="#FF6EBC" stroke-width="5"/>
<line x1="427.123" y1="873.75" x2="880.814" y2="213.625" stroke="#FF6EBC" stroke-width="5"/>
</g>
</g>
</svg>
