<svg width="24" height="25" viewBox="0 0 24 25" fill="none" xmlns="http://www.w3.org/2000/svg">
<path d="M21 4.60001H3C2.46957 4.60001 1.96086 4.81072 1.58579 5.18579C1.21071 5.56087 1 6.06957 1 6.60001V19.6C1 20.1304 1.21071 20.6391 1.58579 21.0142C1.96086 21.3893 2.46957 21.6 3 21.6H21C21.5304 21.6 22.0391 21.3893 22.4142 21.0142C22.7893 20.6391 23 20.1304 23 19.6V6.60001C23 6.06957 22.7893 5.56087 22.4142 5.18579C22.0391 4.81072 21.5304 4.60001 21 4.60001M3 19.6V6.60001H11V19.6H3ZM21 19.6H13V6.60001H21V19.6ZM14 10.1H20V11.6H14V10.1ZM14 12.6H20V14.1H14V12.6ZM14 15.1H20V16.6H14V15.1Z" fill="#FAFAFA"/>
</svg>
