<svg width="25" height="25" viewBox="0 0 25 25" fill="none" xmlns="http://www.w3.org/2000/svg">
<g clip-path="url(#clip0_129_39)">
<path d="M11.2061 22.9614C11.1247 23.2707 11.0636 23.584 11.0229 23.9014C10.9823 24.2188 10.9538 24.5443 10.9375 24.8779C9.89583 24.7559 8.90299 24.5117 7.95898 24.1455C7.01497 23.7793 6.14014 23.3114 5.33447 22.7417C4.52881 22.172 3.79639 21.5129 3.13721 20.7642C2.47803 20.0155 1.9165 19.2017 1.45264 18.3228C0.988769 17.4438 0.630697 16.5161 0.378418 15.5396C0.126139 14.563 0 13.5498 0 12.5C0 11.3525 0.146484 10.2458 0.439453 9.17969C0.732422 8.11361 1.15153 7.1167 1.69678 6.18896C2.24202 5.26123 2.89307 4.41895 3.6499 3.66211C4.40674 2.90527 5.25309 2.25423 6.18896 1.70898C7.12484 1.16374 8.11767 0.744629 9.16748 0.45166C10.2173 0.158691 11.3281 0.00813802 12.5 0C13.6475 0 14.7502 0.146484 15.8081 0.439453C16.866 0.732422 17.863 1.1556 18.7988 1.70898C19.7347 2.26237 20.577 2.91341 21.3257 3.66211C22.0744 4.41081 22.7295 5.25716 23.291 6.20117C23.8525 7.14518 24.2716 8.13802 24.5483 9.17969C24.825 10.2214 24.9756 11.3281 25 12.5H24.1333C24.0194 12.3128 23.9014 12.1297 23.7793 11.9507C23.6572 11.7716 23.5148 11.6007 23.352 11.438C23.3032 10.73 23.1771 10.0423 22.9736 9.375H8.02002C7.95491 9.89583 7.90609 10.4126 7.87353 10.9253C7.84098 11.438 7.82064 11.9629 7.8125 12.5C7.8125 13.029 7.82877 13.5498 7.86133 14.0625C7.89388 14.5752 7.94678 15.096 8.02002 15.625H12.5C12.5 15.8854 12.5203 16.1458 12.561 16.4062C12.6017 16.6667 12.6546 16.9271 12.7197 17.1875H8.28857C8.38623 17.6514 8.51644 18.16 8.6792 18.7134C8.84196 19.2668 9.04541 19.8079 9.28955 20.3369C9.53369 20.8659 9.81445 21.3623 10.1318 21.8262C10.4492 22.29 10.8073 22.6685 11.2061 22.9614ZM22.3755 7.8125C22.0581 7.15332 21.6838 6.53483 21.2524 5.95703C20.8211 5.37923 20.3328 4.85026 19.7876 4.37012C19.2423 3.88997 18.6645 3.46273 18.0542 3.08838C17.4438 2.71403 16.7847 2.40885 16.0767 2.17285C16.3696 2.57975 16.63 3.01107 16.8579 3.4668C17.0858 3.92253 17.2933 4.39046 17.4805 4.87061C17.6676 5.35075 17.8263 5.83903 17.9565 6.33545C18.0867 6.83187 18.2007 7.32422 18.2983 7.8125H22.3755ZM12.5 1.5625C12.0931 1.5625 11.7187 1.67236 11.377 1.89209C11.0352 2.11182 10.7178 2.40072 10.4248 2.75879C10.1318 3.11686 9.87142 3.51969 9.64355 3.96729C9.41569 4.41488 9.20817 4.87467 9.02099 5.34668C8.83382 5.81868 8.68327 6.26628 8.56933 6.68945C8.4554 7.11263 8.36182 7.48698 8.28857 7.8125H16.7114C16.6463 7.49512 16.5527 7.12077 16.4307 6.68945C16.3086 6.25814 16.158 5.81055 15.979 5.34668C15.8 4.88281 15.5965 4.42708 15.3686 3.97949C15.1408 3.5319 14.8804 3.125 14.5874 2.75879C14.2944 2.39258 13.973 2.10368 13.623 1.89209C13.2731 1.6805 12.8988 1.57064 12.5 1.5625ZM8.93555 2.16064C8.24381 2.39665 7.58463 2.69775 6.95801 3.06396C6.33138 3.43018 5.74951 3.85742 5.2124 4.3457C4.67529 4.83398 4.18701 5.36702 3.74756 5.94482C3.3081 6.52262 2.93376 7.14518 2.62451 7.8125H6.70166C6.79118 7.36491 6.90104 6.88883 7.03125 6.38428C7.16146 5.87972 7.32422 5.37516 7.51953 4.87061C7.71484 4.36605 7.92643 3.88184 8.1543 3.41797C8.38216 2.9541 8.64258 2.53499 8.93555 2.16064ZM1.5625 12.5C1.5625 13.5824 1.71305 14.624 2.01416 15.625H6.44531C6.38021 15.1042 6.33138 14.5874 6.29883 14.0747C6.26628 13.562 6.25 13.0371 6.25 12.5C6.25 11.971 6.26628 11.4502 6.29883 10.9375C6.33138 10.4248 6.38021 9.90397 6.44531 9.375H2.01416C1.71305 10.376 1.5625 11.4176 1.5625 12.5ZM2.6001 17.1875C2.91748 17.8467 3.29183 18.4652 3.72314 19.043C4.15446 19.6208 4.64274 20.1538 5.18799 20.6421C5.73323 21.1304 6.31917 21.5535 6.9458 21.9116C7.57243 22.2697 8.23161 22.5749 8.92334 22.8271C8.63037 22.4202 8.36995 21.9889 8.14209 21.5332C7.91422 21.0775 7.7067 20.6095 7.51953 20.1294C7.33236 19.6493 7.17366 19.161 7.04346 18.6646C6.91325 18.1681 6.79525 17.6758 6.68945 17.1875H2.6001ZM21.5088 19.397C22.0378 19.6655 22.5179 19.9951 22.9492 20.3857C23.3805 20.7764 23.7467 21.2158 24.0478 21.7041C24.349 22.1924 24.585 22.7132 24.7559 23.2666C24.9268 23.82 25.0081 24.3978 25 25H23.4375C23.4375 24.3571 23.3154 23.7508 23.0713 23.1812C22.8271 22.6115 22.4935 22.1151 22.0703 21.6919C21.6471 21.2687 21.1466 20.931 20.5688 20.6787C19.991 20.4264 19.3848 20.3044 18.75 20.3125C18.099 20.3125 17.4927 20.4346 16.9311 20.6787C16.3696 20.9229 15.8732 21.2565 15.4419 21.6797C15.0106 22.1029 14.6728 22.6034 14.4287 23.1812C14.1846 23.759 14.0625 24.3652 14.0625 25H12.5C12.5 24.4059 12.5814 23.8322 12.7441 23.2788C12.9069 22.7254 13.1388 22.2005 13.4399 21.7041C13.741 21.2077 14.1073 20.7682 14.5386 20.3857C14.9699 20.0033 15.45 19.6737 15.979 19.397C15.3686 18.9575 14.8966 18.4082 14.563 17.749C14.2293 17.0898 14.0625 16.3818 14.0625 15.625C14.0625 14.9821 14.1846 14.3758 14.4287 13.8062C14.6728 13.2365 15.0065 12.7401 15.4297 12.3169C15.8529 11.8937 16.3493 11.556 16.9189 11.3037C17.4886 11.0514 18.099 10.9294 18.75 10.9375C19.3929 10.9375 19.9992 11.0596 20.5688 11.3037C21.1385 11.5479 21.6349 11.8815 22.0581 12.3047C22.4813 12.7279 22.819 13.2284 23.0713 13.8062C23.3236 14.384 23.4456 14.9902 23.4375 15.625C23.4375 16.3737 23.2707 17.0776 22.937 17.7368C22.6033 18.396 22.1273 18.9494 21.5088 19.397ZM18.75 18.75C19.1813 18.75 19.5841 18.6686 19.9585 18.5059C20.3328 18.3431 20.6665 18.1193 20.9595 17.8345C21.2524 17.5496 21.4762 17.2201 21.6309 16.8457C21.7855 16.4714 21.8669 16.0645 21.875 15.625C21.875 15.1937 21.7936 14.7909 21.6309 14.4165C21.4681 14.0422 21.2443 13.7085 20.9595 13.4155C20.6746 13.1226 20.345 12.8988 19.9707 12.7441C19.5964 12.5895 19.1895 12.5081 18.75 12.5C18.3187 12.5 17.9159 12.5814 17.5415 12.7441C17.1672 12.9069 16.8335 13.1307 16.5405 13.4155C16.2476 13.7004 16.0238 14.0299 15.8691 14.4043C15.7145 14.7786 15.6331 15.1855 15.625 15.625C15.625 16.0563 15.7064 16.4591 15.8691 16.8335C16.0319 17.2078 16.2557 17.5415 16.5405 17.8345C16.8254 18.1274 17.1549 18.3512 17.5293 18.5059C17.9036 18.6605 18.3105 18.7419 18.75 18.75Z" fill="black"/>
</g>
<defs>
<clipPath id="clip0_129_39">
<rect width="25" height="25" fill="white"/>
</clipPath>
</defs>
</svg>
