<svg width="50" height="50" viewBox="0 0 50 50" fill="none" xmlns="http://www.w3.org/2000/svg">
<path fill-rule="evenodd" clip-rule="evenodd" d="M25 48.4375C37.0812 48.4375 46.875 38.6437 46.875 26.5625C46.875 14.4813 37.0812 4.6875 25 4.6875C12.9188 4.6875 3.125 14.4813 3.125 26.5625C3.125 30.4857 4.15781 34.1678 5.96637 37.3515L3.125 48.4375L14.5545 45.7872C17.6584 47.4772 21.2171 48.4375 25 48.4375ZM25 45.0721C35.2226 45.0721 43.5096 36.7851 43.5096 26.5625C43.5096 16.3399 35.2226 8.05288 25 8.05288C14.7774 8.05288 6.49038 16.3399 6.49038 26.5625C6.49038 30.5095 7.72578 34.1679 9.831 37.1722L8.17308 43.3894L14.4999 41.8077C17.4834 43.8665 21.1009 45.0721 25 45.0721Z" fill="#BFC8D0"/>
<path d="M43.75 25C43.75 35.3553 35.3553 43.75 25 43.75C21.0503 43.75 17.3858 42.5287 14.3635 40.4432L7.95455 42.0455L9.634 35.7475C7.50144 32.7042 6.25 28.9982 6.25 25C6.25 14.6447 14.6447 6.25 25 6.25C35.3553 6.25 43.75 14.6447 43.75 25Z" fill="url(#paint0_linear_31_178)"/>
<path fill-rule="evenodd" clip-rule="evenodd" d="M25 46.875C37.0812 46.875 46.875 37.0812 46.875 25C46.875 12.9188 37.0812 3.125 25 3.125C12.9188 3.125 3.125 12.9188 3.125 25C3.125 28.9232 4.15781 32.6053 5.96637 35.789L3.125 46.875L14.5545 44.2247C17.6584 45.9147 21.2171 46.875 25 46.875ZM25 43.5096C35.2226 43.5096 43.5096 35.2226 43.5096 25C43.5096 14.7774 35.2226 6.49038 25 6.49038C14.7774 6.49038 6.49038 14.7774 6.49038 25C6.49038 28.947 7.72578 32.6054 9.831 35.6097L8.17308 41.8269L14.4999 40.2452C17.4834 42.304 21.1009 43.5096 25 43.5096Z" fill="white"/>
<path d="M19.5313 14.8438C19.0112 13.7991 18.2133 13.8916 17.4073 13.8916C15.9668 13.8916 13.7207 15.617 13.7207 18.8282C13.7207 21.46 14.8804 24.3409 18.7882 28.6504C22.5594 32.8094 27.5147 34.9608 31.6284 34.8876C35.7422 34.8143 36.5886 31.2743 36.5886 30.0788C36.5886 29.5489 36.2598 29.2845 36.0332 29.2127C34.6314 28.5399 32.0458 27.2863 31.4575 27.0508C30.8692 26.8153 30.5621 27.1339 30.3711 27.3072C29.8376 27.8156 28.7801 29.3139 28.418 29.6509C28.0559 29.9879 27.5161 29.8174 27.2914 29.69C26.4647 29.3582 24.2233 28.3612 22.4367 26.6293C20.2271 24.4873 20.0974 23.7504 19.6811 23.0944C19.3481 22.5696 19.5924 22.2476 19.7144 22.1069C20.1905 21.5576 20.8478 20.7095 21.1426 20.2881C21.4374 19.8666 21.2034 19.2268 21.063 18.8282C20.459 17.1143 19.9474 15.6795 19.5313 14.8438Z" fill="white"/>
<defs>
<linearGradient id="paint0_linear_31_178" x1="41.4062" y1="10.9375" x2="6.25" y2="43.75" gradientUnits="userSpaceOnUse">
<stop stop-color="#5BD066"/>
<stop offset="1" stop-color="#27B43E"/>
</linearGradient>
</defs>
</svg>
