<svg width="780" height="30" viewBox="0 0 780 30" fill="none" xmlns="http://www.w3.org/2000/svg">
<line x1="8" y1="15.5" x2="772" y2="15.4999" stroke="#FF6EBC" stroke-width="5"/>
<circle cx="315" cy="15" r="15" fill="#BE2A7A"/>
<path d="M311.718 12.426C311.783 11.5673 312.115 10.8953 312.712 10.41C313.309 9.92467 314.084 9.682 315.036 9.682C315.671 9.682 316.217 9.79867 316.674 10.032C317.141 10.256 317.491 10.564 317.724 10.956C317.967 11.348 318.088 11.7913 318.088 12.286C318.088 12.8647 317.92 13.364 317.584 13.784C317.257 14.204 316.828 14.4747 316.296 14.596V14.666C316.903 14.8153 317.383 15.1093 317.738 15.548C318.093 15.9867 318.27 16.5607 318.27 17.27C318.27 17.802 318.149 18.2827 317.906 18.712C317.663 19.132 317.299 19.4633 316.814 19.706C316.329 19.9487 315.745 20.07 315.064 20.07C314.075 20.07 313.263 19.8133 312.628 19.3C311.993 18.7773 311.639 18.04 311.564 17.088H312.796C312.861 17.648 313.09 18.1053 313.482 18.46C313.874 18.8147 314.397 18.992 315.05 18.992C315.703 18.992 316.198 18.824 316.534 18.488C316.879 18.1427 317.052 17.6993 317.052 17.158C317.052 16.458 316.819 15.954 316.352 15.646C315.885 15.338 315.181 15.184 314.238 15.184H313.916V14.12H314.252C315.111 14.1107 315.759 13.9707 316.198 13.7C316.637 13.42 316.856 12.9907 316.856 12.412C316.856 11.9173 316.693 11.5207 316.366 11.222C316.049 10.9233 315.591 10.774 314.994 10.774C314.415 10.774 313.949 10.9233 313.594 11.222C313.239 11.5207 313.029 11.922 312.964 12.426H311.718Z" fill="white"/>
<circle cx="465" cy="15" r="15" fill="#BE2A7A"/>
<path d="M461.158 17.746V16.78L466.072 9.976H467.598V16.64H468.998V17.746H467.598V20H466.338V17.746H461.158ZM466.394 11.306L462.628 16.64H466.394V11.306Z" fill="white"/>
<circle cx="615" cy="15" r="15" fill="#BE2A7A"/>
<path d="M617.926 10.984H613.012V14.176C613.227 13.8773 613.544 13.6347 613.964 13.448C614.384 13.252 614.837 13.154 615.322 13.154C616.097 13.154 616.727 13.3173 617.212 13.644C617.698 13.9613 618.043 14.3767 618.248 14.89C618.463 15.394 618.57 15.9307 618.57 16.5C618.57 17.172 618.444 17.774 618.192 18.306C617.94 18.838 617.553 19.258 617.03 19.566C616.517 19.874 615.878 20.028 615.112 20.028C614.132 20.028 613.339 19.776 612.732 19.272C612.126 18.768 611.757 18.096 611.626 17.256H612.872C612.994 17.788 613.25 18.2033 613.642 18.502C614.034 18.8007 614.529 18.95 615.126 18.95C615.864 18.95 616.419 18.7307 616.792 18.292C617.166 17.844 617.352 17.256 617.352 16.528C617.352 15.8 617.166 15.24 616.792 14.848C616.419 14.4467 615.868 14.246 615.14 14.246C614.646 14.246 614.212 14.3673 613.838 14.61C613.474 14.8433 613.208 15.1653 613.04 15.576H611.836V9.864H617.926V10.984Z" fill="white"/>
<circle cx="765" cy="15" r="15" fill="#BE2A7A"/>
<path d="M767.067 12.286C766.861 11.25 766.222 10.732 765.149 10.732C764.318 10.732 763.697 11.054 763.287 11.698C762.876 12.3327 762.675 13.3827 762.685 14.848C762.899 14.3627 763.254 13.9847 763.749 13.714C764.253 13.434 764.813 13.294 765.429 13.294C766.39 13.294 767.155 13.5927 767.725 14.19C768.303 14.7873 768.593 15.6133 768.593 16.668C768.593 17.3027 768.467 17.872 768.215 18.376C767.972 18.88 767.599 19.2813 767.095 19.58C766.6 19.8787 765.998 20.028 765.289 20.028C764.327 20.028 763.576 19.8133 763.035 19.384C762.493 18.9547 762.115 18.362 761.901 17.606C761.686 16.85 761.579 15.9167 761.579 14.806C761.579 11.3807 762.773 9.668 765.163 9.668C766.077 9.668 766.796 9.91533 767.319 10.41C767.841 10.9047 768.149 11.53 768.243 12.286H767.067ZM765.163 14.372C764.761 14.372 764.383 14.456 764.029 14.624C763.674 14.7827 763.385 15.03 763.161 15.366C762.946 15.6927 762.839 16.094 762.839 16.57C762.839 17.2793 763.044 17.858 763.455 18.306C763.865 18.7447 764.453 18.964 765.219 18.964C765.872 18.964 766.39 18.7633 766.773 18.362C767.165 17.9513 767.361 17.4007 767.361 16.71C767.361 15.982 767.174 15.4127 766.801 15.002C766.427 14.582 765.881 14.372 765.163 14.372Z" fill="white"/>
<circle cx="15" cy="15" r="15" fill="#BE2A7A"/>
<path d="M13.2898 11.04V9.878H15.9218V20H14.6338V11.04H13.2898Z" fill="white"/>
<circle cx="165" cy="15" r="15" fill="#BE2A7A"/>
<path d="M161.688 18.978C162.873 18.026 163.802 17.2467 164.474 16.64C165.146 16.024 165.71 15.3847 166.168 14.722C166.634 14.05 166.868 13.392 166.868 12.748C166.868 12.1413 166.718 11.6653 166.42 11.32C166.13 10.9653 165.659 10.788 165.006 10.788C164.371 10.788 163.876 10.9887 163.522 11.39C163.176 11.782 162.99 12.3093 162.962 12.972H161.73C161.767 11.9267 162.084 11.1193 162.682 10.55C163.279 9.98067 164.049 9.696 164.992 9.696C165.953 9.696 166.714 9.962 167.274 10.494C167.843 11.026 168.128 11.7587 168.128 12.692C168.128 13.4667 167.894 14.2227 167.428 14.96C166.97 15.688 166.448 16.332 165.86 16.892C165.272 17.4427 164.52 18.0867 163.606 18.824H168.422V19.888H161.688V18.978Z" fill="white"/>
</svg>
