<svg width="51" height="9" viewBox="0 0 51 9" fill="none" xmlns="http://www.w3.org/2000/svg">
<path d="M1.48945 5.89C1.14945 5.89 0.859453 5.77333 0.619453 5.54C0.38612 5.3 0.269453 5.01 0.269453 4.67C0.269453 4.32333 0.38612 4.03333 0.619453 3.8C0.859453 3.56 1.14945 3.44 1.48945 3.44C1.83612 3.44 2.12945 3.56 2.36945 3.8C2.60945 4.03333 2.72945 4.32333 2.72945 4.67C2.72945 5.01 2.60945 5.3 2.36945 5.54C2.12945 5.77333 1.83612 5.89 1.48945 5.89ZM13.26 4.41C13.5133 4.45 13.7433 4.55333 13.95 4.72C14.1633 4.88667 14.33 5.09333 14.45 5.34C14.5767 5.58667 14.64 5.85 14.64 6.13C14.64 6.48333 14.55 6.80333 14.37 7.09C14.19 7.37 13.9267 7.59333 13.58 7.76C13.24 7.92 12.8367 8 12.37 8H9.77V1.03H12.27C12.7433 1.03 13.1467 1.11 13.48 1.27C13.8133 1.42333 14.0633 1.63333 14.23 1.9C14.3967 2.16667 14.48 2.46667 14.48 2.8C14.48 3.21333 14.3667 3.55667 14.14 3.83C13.92 4.09667 13.6267 4.29 13.26 4.41ZM10.68 4.04H12.21C12.6367 4.04 12.9667 3.94 13.2 3.74C13.4333 3.54 13.55 3.26333 13.55 2.91C13.55 2.55667 13.4333 2.28 13.2 2.08C12.9667 1.88 12.63 1.78 12.19 1.78H10.68V4.04ZM12.29 7.25C12.7433 7.25 13.0967 7.14333 13.35 6.93C13.6033 6.71667 13.73 6.42 13.73 6.04C13.73 5.65333 13.5967 5.35 13.33 5.13C13.0633 4.90333 12.7067 4.79 12.26 4.79H10.68V7.25H12.29ZM20.9028 5.05C20.9028 5.22333 20.8928 5.40667 20.8728 5.6H16.4928C16.5261 6.14 16.7095 6.56333 17.0428 6.87C17.3828 7.17 17.7928 7.32 18.2728 7.32C18.6661 7.32 18.9928 7.23 19.2528 7.05C19.5195 6.86333 19.7061 6.61667 19.8128 6.31H20.7928C20.6461 6.83667 20.3528 7.26667 19.9128 7.6C19.4728 7.92667 18.9261 8.09 18.2728 8.09C17.7528 8.09 17.2861 7.97333 16.8728 7.74C16.4661 7.50667 16.1461 7.17667 15.9128 6.75C15.6795 6.31667 15.5628 5.81667 15.5628 5.25C15.5628 4.68333 15.6761 4.18667 15.9028 3.76C16.1295 3.33333 16.4461 3.00667 16.8528 2.78C17.2661 2.54667 17.7395 2.43 18.2728 2.43C18.7928 2.43 19.2528 2.54333 19.6528 2.77C20.0528 2.99667 20.3595 3.31 20.5728 3.71C20.7928 4.10333 20.9028 4.55 20.9028 5.05ZM19.9628 4.86C19.9628 4.51333 19.8861 4.21667 19.7328 3.97C19.5795 3.71667 19.3695 3.52667 19.1028 3.4C18.8428 3.26667 18.5528 3.2 18.2328 3.2C17.7728 3.2 17.3795 3.34667 17.0528 3.64C16.7328 3.93333 16.5495 4.34 16.5028 4.86H19.9628ZM23.014 3.41C23.174 3.09667 23.4007 2.85333 23.694 2.68C23.994 2.50667 24.3573 2.42 24.784 2.42V3.36H24.544C23.524 3.36 23.014 3.91333 23.014 5.02V8H22.104V2.52H23.014V3.41ZM25.4945 5.24C25.4945 4.68 25.6078 4.19 25.8345 3.77C26.0611 3.34333 26.3711 3.01333 26.7645 2.78C27.1645 2.54667 27.6078 2.43 28.0945 2.43C28.5745 2.43 28.9911 2.53333 29.3445 2.74C29.6978 2.94667 29.9611 3.20667 30.1345 3.52V2.52H31.0545V8H30.1345V6.98C29.9545 7.3 29.6845 7.56667 29.3245 7.78C28.9711 7.98667 28.5578 8.09 28.0845 8.09C27.5978 8.09 27.1578 7.97 26.7645 7.73C26.3711 7.49 26.0611 7.15333 25.8345 6.72C25.6078 6.28667 25.4945 5.79333 25.4945 5.24ZM30.1345 5.25C30.1345 4.83667 30.0511 4.47667 29.8845 4.17C29.7178 3.86333 29.4911 3.63 29.2045 3.47C28.9245 3.30333 28.6145 3.22 28.2745 3.22C27.9345 3.22 27.6245 3.3 27.3445 3.46C27.0645 3.62 26.8411 3.85333 26.6745 4.16C26.5078 4.46667 26.4245 4.82667 26.4245 5.24C26.4245 5.66 26.5078 6.02667 26.6745 6.34C26.8411 6.64667 27.0645 6.88333 27.3445 7.05C27.6245 7.21 27.9345 7.29 28.2745 7.29C28.6145 7.29 28.9245 7.21 29.2045 7.05C29.4911 6.88333 29.7178 6.64667 29.8845 6.34C30.0511 6.02667 30.1345 5.66333 30.1345 5.25ZM35.2623 2.42C35.9289 2.42 36.4689 2.62333 36.8823 3.03C37.2956 3.43 37.5023 4.01 37.5023 4.77V8H36.6023V4.9C36.6023 4.35333 36.4656 3.93667 36.1923 3.65C35.9189 3.35667 35.5456 3.21 35.0723 3.21C34.5923 3.21 34.2089 3.36 33.9223 3.66C33.6423 3.96 33.5023 4.39667 33.5023 4.97V8H32.5923V2.52H33.5023V3.3C33.6823 3.02 33.9256 2.80333 34.2323 2.65C34.5456 2.49667 34.8889 2.42 35.2623 2.42ZM38.6488 5.24C38.6488 4.68 38.7621 4.19 38.9888 3.77C39.2154 3.34333 39.5254 3.01333 39.9188 2.78C40.3188 2.54667 40.7654 2.43 41.2588 2.43C41.6854 2.43 42.0821 2.53 42.4488 2.73C42.8154 2.92333 43.0954 3.18 43.2888 3.5V0.6H44.2088V8H43.2888V6.97C43.1088 7.29667 42.8421 7.56667 42.4888 7.78C42.1354 7.98667 41.7221 8.09 41.2488 8.09C40.7621 8.09 40.3188 7.97 39.9188 7.73C39.5254 7.49 39.2154 7.15333 38.9888 6.72C38.7621 6.28667 38.6488 5.79333 38.6488 5.24ZM43.2888 5.25C43.2888 4.83667 43.2054 4.47667 43.0388 4.17C42.8721 3.86333 42.6454 3.63 42.3588 3.47C42.0788 3.30333 41.7688 3.22 41.4288 3.22C41.0888 3.22 40.7788 3.3 40.4988 3.46C40.2188 3.62 39.9954 3.85333 39.8288 4.16C39.6621 4.46667 39.5788 4.82667 39.5788 5.24C39.5788 5.66 39.6621 6.02667 39.8288 6.34C39.9954 6.64667 40.2188 6.88333 40.4988 7.05C40.7788 7.21 41.0888 7.29 41.4288 7.29C41.7688 7.29 42.0788 7.21 42.3588 7.05C42.6454 6.88333 42.8721 6.64667 43.0388 6.34C43.2054 6.02667 43.2888 5.66333 43.2888 5.25ZM45.4066 5.24C45.4066 4.68 45.5199 4.19 45.7466 3.77C45.9732 3.34333 46.2832 3.01333 46.6766 2.78C47.0766 2.54667 47.5199 2.43 48.0066 2.43C48.4866 2.43 48.9032 2.53333 49.2566 2.74C49.6099 2.94667 49.8732 3.20667 50.0466 3.52V2.52H50.9666V8H50.0466V6.98C49.8666 7.3 49.5966 7.56667 49.2366 7.78C48.8832 7.98667 48.4699 8.09 47.9966 8.09C47.5099 8.09 47.0699 7.97 46.6766 7.73C46.2832 7.49 45.9732 7.15333 45.7466 6.72C45.5199 6.28667 45.4066 5.79333 45.4066 5.24ZM50.0466 5.25C50.0466 4.83667 49.9632 4.47667 49.7966 4.17C49.6299 3.86333 49.4032 3.63 49.1166 3.47C48.8366 3.30333 48.5266 3.22 48.1866 3.22C47.8466 3.22 47.5366 3.3 47.2566 3.46C46.9766 3.62 46.7532 3.85333 46.5866 4.16C46.4199 4.46667 46.3366 4.82667 46.3366 5.24C46.3366 5.66 46.4199 6.02667 46.5866 6.34C46.7532 6.64667 46.9766 6.88333 47.2566 7.05C47.5366 7.21 47.8466 7.29 48.1866 7.29C48.5266 7.29 48.8366 7.21 49.1166 7.05C49.4032 6.88333 49.6299 6.64667 49.7966 6.34C49.9632 6.02667 50.0466 5.66333 50.0466 5.25Z" fill="#BE2A7A"/>
</svg>
