<svg width="250" height="60" viewBox="0 0 250 60" fill="none" xmlns="http://www.w3.org/2000/svg">
<rect width="250" height="60" rx="5" fill="#BE2A7A"/>
<path d="M76.678 38V21.9H84.478C86.078 21.9 87.2614 22.275 88.028 23.025C88.7947 23.775 89.178 24.8333 89.178 26.2C89.178 27.0667 89.003 27.8 88.653 28.4C88.303 28.9833 87.8364 29.425 87.253 29.725C88.0364 29.9417 88.653 30.3333 89.103 30.9C89.5697 31.45 89.803 32.2667 89.803 33.35C89.803 34.9167 89.378 36.0833 88.528 36.85C87.6947 37.6167 86.4614 38 84.828 38H76.678ZM79.403 28.775H84.103C85.0197 28.775 85.6697 28.5667 86.053 28.15C86.453 27.7167 86.653 27.1417 86.653 26.425C86.653 25.5917 86.453 24.975 86.053 24.575C85.653 24.1583 84.903 23.95 83.803 23.95H79.403V28.775ZM79.403 36H84.253C85.2197 36 85.928 35.8 86.378 35.4C86.828 34.9833 87.053 34.2667 87.053 33.25C87.053 32.4167 86.828 31.8 86.378 31.4C85.9447 30.9833 85.1447 30.775 83.978 30.775H79.403V36ZM96.7245 38.25C95.3078 38.25 94.2162 37.8583 93.4495 37.075C92.6995 36.2917 92.3245 35.1417 92.3245 33.625V26.15H95.0495V33.625C95.0495 34.5083 95.2662 35.1583 95.6995 35.575C96.1328 35.9917 96.7995 36.2 97.6995 36.2C98.3662 36.2 98.9828 36.075 99.5495 35.825C100.116 35.575 100.608 35.2417 101.025 34.825V26.15H103.725V38H101.25L101.125 36.775C100.591 37.1917 99.9578 37.5417 99.2245 37.825C98.4912 38.1083 97.6578 38.25 96.7245 38.25ZM106.903 38V21.15H109.628V30.9L114.603 26.15H117.728L112.903 30.925L118.003 38H115.128L111.203 32.375L109.628 33.875V38H106.903ZM122.663 38.25C121.913 38.25 121.213 38.1167 120.563 37.85C119.93 37.5833 119.422 37.1833 119.038 36.65C118.655 36.1 118.463 35.425 118.463 34.625C118.463 33.4917 118.847 32.5833 119.613 31.9C120.397 31.2 121.597 30.85 123.213 30.85H127.013V30.325C127.013 29.7583 126.922 29.3083 126.738 28.975C126.572 28.6417 126.255 28.4 125.788 28.25C125.338 28.1 124.672 28.025 123.788 28.025C122.388 28.025 121.08 28.2333 119.863 28.65V26.625C120.397 26.4083 121.047 26.2333 121.813 26.1C122.58 25.9667 123.405 25.9 124.288 25.9C126.022 25.9 127.338 26.25 128.238 26.95C129.155 27.65 129.613 28.7917 129.613 30.375V38H127.288L127.113 36.8C126.63 37.2667 126.03 37.625 125.313 37.875C124.613 38.125 123.73 38.25 122.663 38.25ZM123.388 36.3C124.205 36.3 124.913 36.1667 125.513 35.9C126.13 35.6167 126.63 35.2417 127.013 34.775V32.7H123.263C122.463 32.7 121.88 32.8583 121.513 33.175C121.163 33.475 120.988 33.9417 120.988 34.575C120.988 35.1917 121.197 35.6333 121.613 35.9C122.03 36.1667 122.622 36.3 123.388 36.3ZM138.397 38V21.9H141.197L146.297 32.325L151.372 21.9H154.172V38H151.472V26.325L147.122 35.225H145.472L141.097 26.325V38H138.397ZM161.018 38.25C160.268 38.25 159.568 38.1167 158.918 37.85C158.284 37.5833 157.776 37.1833 157.393 36.65C157.009 36.1 156.818 35.425 156.818 34.625C156.818 33.4917 157.201 32.5833 157.968 31.9C158.751 31.2 159.951 30.85 161.568 30.85H165.368V30.325C165.368 29.7583 165.276 29.3083 165.093 28.975C164.926 28.6417 164.609 28.4 164.143 28.25C163.693 28.1 163.026 28.025 162.143 28.025C160.743 28.025 159.434 28.2333 158.218 28.65V26.625C158.751 26.4083 159.401 26.2333 160.168 26.1C160.934 25.9667 161.759 25.9 162.643 25.9C164.376 25.9 165.693 26.25 166.593 26.95C167.509 27.65 167.968 28.7917 167.968 30.375V38H165.643L165.468 36.8C164.984 37.2667 164.384 37.625 163.668 37.875C162.968 38.125 162.084 38.25 161.018 38.25ZM161.743 36.3C162.559 36.3 163.268 36.1667 163.868 35.9C164.484 35.6167 164.984 35.2417 165.368 34.775V32.7H161.618C160.818 32.7 160.234 32.8583 159.868 33.175C159.518 33.475 159.343 33.9417 159.343 34.575C159.343 35.1917 159.551 35.6333 159.968 35.9C160.384 36.1667 160.976 36.3 161.743 36.3ZM175.515 38.25C174.248 38.25 173.298 37.9167 172.665 37.25C172.048 36.5667 171.74 35.6417 171.74 34.475V28.275H169.99V26.15H171.74V23.425L174.44 22.6V26.15H177.59L177.415 28.275H174.44V34.325C174.44 35.0083 174.598 35.4917 174.915 35.775C175.231 36.0417 175.748 36.175 176.465 36.175C176.915 36.175 177.39 36.0917 177.89 35.925V37.85C177.24 38.1167 176.448 38.25 175.515 38.25ZM185.974 38.25C183.907 38.25 182.307 37.7417 181.174 36.725C180.041 35.7083 179.474 34.15 179.474 32.05C179.474 30.15 179.957 28.65 180.924 27.55C181.891 26.45 183.357 25.9 185.324 25.9C187.124 25.9 188.474 26.375 189.374 27.325C190.291 28.2583 190.749 29.4667 190.749 30.95V33.15H182.074C182.207 34.3 182.624 35.0917 183.324 35.525C184.024 35.9583 185.091 36.175 186.524 36.175C187.124 36.175 187.741 36.1167 188.374 36C189.007 35.8833 189.557 35.7333 190.024 35.55V37.55C189.491 37.7833 188.874 37.9583 188.174 38.075C187.491 38.1917 186.757 38.25 185.974 38.25ZM182.074 31.375H188.349V30.55C188.349 29.7333 188.124 29.1 187.674 28.65C187.224 28.1833 186.466 27.95 185.399 27.95C184.132 27.95 183.257 28.225 182.774 28.775C182.307 29.325 182.074 30.1917 182.074 31.375ZM193.402 38V26.15H195.902L196.052 27.525C196.618 27.1583 197.293 26.825 198.077 26.525C198.86 26.225 199.635 26.0167 200.402 25.9V27.975C199.935 28.0583 199.427 28.1833 198.877 28.35C198.343 28.5 197.835 28.675 197.352 28.875C196.868 29.0583 196.46 29.25 196.127 29.45V38H193.402ZM203.386 23.675V21.425H206.361V23.675H203.386ZM203.611 38V28.225H201.811L202.061 26.15H206.336V38H203.611Z" fill="#FAFAFA"/>
<path d="M62 21.6H44C43.4696 21.6 42.9609 21.8107 42.5858 22.1858C42.2107 22.5609 42 23.0696 42 23.6V36.6C42 37.1304 42.2107 37.6391 42.5858 38.0142C42.9609 38.3893 43.4696 38.6 44 38.6H62C62.5304 38.6 63.0391 38.3893 63.4142 38.0142C63.7893 37.6391 64 37.1304 64 36.6V23.6C64 23.0696 63.7893 22.5609 63.4142 22.1858C63.0391 21.8107 62.5304 21.6 62 21.6M44 36.6V23.6H52V36.6H44ZM62 36.6H54V23.6H62V36.6ZM55 27.1H61V28.6H55V27.1ZM55 29.6H61V31.1H55V29.6ZM55 32.1H61V33.6H55V32.1Z" fill="#FAFAFA"/>
</svg>
