<svg width="155" height="28" viewBox="0 0 155 28" fill="none" xmlns="http://www.w3.org/2000/svg">
<path d="M0.71 21V1.68H8.81C11.71 1.68 13.89 2.43 15.35 3.93C16.83 5.41 17.57 7.91 17.57 11.43C17.57 14.75 16.84 17.18 15.38 18.72C13.94 20.24 11.75 21 8.81 21H0.71ZM4.76 17.88H8.24C9.38 17.88 10.34 17.71 11.12 17.37C11.9 17.01 12.48 16.37 12.86 15.45C13.26 14.51 13.46 13.17 13.46 11.43C13.46 9.69 13.28 8.36 12.92 7.44C12.56 6.52 12 5.89 11.24 5.55C10.48 5.21 9.48 5.04 8.24 5.04H4.76V17.88ZM27.8075 21.3C25.3475 21.3 23.3975 20.69 21.9575 19.47C20.5175 18.23 19.7975 16.36 19.7975 13.86C19.7975 11.6 20.3975 9.81 21.5975 8.49C22.8175 7.15 24.6275 6.48 27.0275 6.48C29.2275 6.48 30.9075 7.06 32.0675 8.22C33.2475 9.36 33.8375 10.86 33.8375 12.72V15.3H23.5475C23.7675 16.44 24.2875 17.22 25.1075 17.64C25.9475 18.06 27.1275 18.27 28.6475 18.27C29.4075 18.27 30.1775 18.2 30.9575 18.06C31.7575 17.92 32.4375 17.74 32.9975 17.52V20.4C32.3375 20.7 31.5675 20.92 30.6875 21.06C29.8075 21.22 28.8475 21.3 27.8075 21.3ZM23.5475 12.81H30.2975V12.03C30.2975 11.21 30.0575 10.57 29.5775 10.11C29.0975 9.63 28.2875 9.39 27.1475 9.39C25.8075 9.39 24.8675 9.66 24.3275 10.2C23.8075 10.74 23.5475 11.61 23.5475 12.81ZM41.5208 21.3C40.4608 21.3 39.4508 21.22 38.4908 21.06C37.5308 20.92 36.7608 20.74 36.1808 20.52V17.16C36.8808 17.44 37.6708 17.66 38.5508 17.82C39.4308 17.96 40.2408 18.03 40.9808 18.03C41.9808 18.03 42.6808 17.97 43.0808 17.85C43.5008 17.73 43.7108 17.46 43.7108 17.04C43.7108 16.56 43.3908 16.21 42.7508 15.99C42.1308 15.77 41.2008 15.46 39.9608 15.06C38.6608 14.62 37.6608 14.09 36.9608 13.47C36.2608 12.85 35.9108 11.93 35.9108 10.71C35.9108 9.35 36.4008 8.31 37.3808 7.59C38.3808 6.85 39.9808 6.48 42.1808 6.48C43.0608 6.48 43.8908 6.55 44.6708 6.69C45.4508 6.81 46.1108 6.96 46.6508 7.14V10.47C46.1108 10.21 45.4908 10.02 44.7908 9.9C44.0908 9.76 43.4408 9.69 42.8408 9.69C41.9808 9.69 41.2908 9.75 40.7708 9.87C40.2708 9.99 40.0208 10.25 40.0208 10.65C40.0208 11.09 40.2908 11.4 40.8308 11.58C41.3908 11.76 42.2508 12.03 43.4108 12.39C44.5508 12.73 45.4408 13.1 46.0808 13.5C46.7208 13.9 47.1708 14.38 47.4308 14.94C47.6908 15.48 47.8208 16.16 47.8208 16.98C47.8208 19.86 45.7208 21.3 41.5208 21.3ZM57.4524 21.3C54.9124 21.3 52.9624 20.67 51.6024 19.41C50.2624 18.15 49.5924 16.31 49.5924 13.89C49.5924 11.39 50.3124 9.53 51.7524 8.31C53.2124 7.09 55.1524 6.48 57.5724 6.48C58.5724 6.48 59.4324 6.55 60.1524 6.69C60.8724 6.83 61.5724 7.06 62.2524 7.38V10.29C61.7524 10.05 61.1724 9.86 60.5124 9.72C59.8524 9.58 59.1424 9.51 58.3824 9.51C56.8624 9.51 55.7024 9.83 54.9024 10.47C54.1024 11.09 53.7024 12.23 53.7024 13.89C53.7024 15.41 54.0624 16.52 54.7824 17.22C55.5224 17.92 56.7124 18.27 58.3524 18.27C59.0524 18.27 59.7324 18.2 60.3924 18.06C61.0724 17.92 61.7024 17.71 62.2824 17.43V20.43C60.9424 21.01 59.3324 21.3 57.4524 21.3ZM64.8409 21V6.78H68.5909L68.7709 8.25C69.4109 7.85 70.2009 7.49 71.1409 7.17C72.1009 6.83 73.0409 6.6 73.9609 6.48V9.54C73.4209 9.62 72.8309 9.74 72.1909 9.9C71.5509 10.06 70.9409 10.24 70.3609 10.44C69.7809 10.64 69.2909 10.85 68.8909 11.07V21H64.8409ZM77.0223 4.17V0.989998H81.4323V4.17H77.0223ZM77.3523 21V9.78H75.2223L75.5823 6.78H81.4023V21H77.3523ZM84.8506 27.48V6.78H88.3606L88.5706 8.1C89.1906 7.58 89.8706 7.18 90.6106 6.9C91.3506 6.62 92.2206 6.48 93.2206 6.48C95.3006 6.48 96.9006 7.05 98.0206 8.19C99.1606 9.31 99.7306 11.15 99.7306 13.71C99.7306 16.27 99.1206 18.18 97.9006 19.44C96.7006 20.68 95.0606 21.3 92.9806 21.3C91.3806 21.3 90.0206 20.94 88.9006 20.22V27.48H84.8506ZM91.9606 18.33C93.1606 18.33 94.0706 17.96 94.6906 17.22C95.3106 16.48 95.6206 15.32 95.6206 13.74C95.6206 12.22 95.3406 11.13 94.7806 10.47C94.2206 9.79 93.3206 9.45 92.0806 9.45C90.8406 9.45 89.7806 9.88 88.9006 10.74V17.25C89.3206 17.57 89.7606 17.83 90.2206 18.03C90.7006 18.23 91.2806 18.33 91.9606 18.33ZM108.186 21.3C106.546 21.3 105.326 20.87 104.526 20.01C103.746 19.15 103.356 17.98 103.356 16.5V9.9H101.346V6.78H103.356V3.72L107.406 2.52V6.78H111.006L110.766 9.9H107.406V16.23C107.406 17.01 107.586 17.55 107.946 17.85C108.306 18.13 108.866 18.27 109.626 18.27C110.186 18.27 110.766 18.17 111.366 17.97V20.76C110.926 20.94 110.446 21.07 109.926 21.15C109.406 21.25 108.826 21.3 108.186 21.3ZM114.434 4.17V0.989998H118.844V4.17H114.434ZM114.764 21V9.78H112.634L112.994 6.78H118.814V21H114.764ZM129.373 21.3C126.713 21.3 124.763 20.66 123.523 19.38C122.283 18.08 121.663 16.25 121.663 13.89C121.663 11.53 122.283 9.71 123.523 8.43C124.783 7.13 126.733 6.48 129.373 6.48C132.033 6.48 133.983 7.13 135.223 8.43C136.483 9.71 137.113 11.53 137.113 13.89C137.113 16.25 136.493 18.08 135.253 19.38C134.013 20.66 132.053 21.3 129.373 21.3ZM129.373 17.85C130.673 17.85 131.603 17.56 132.163 16.98C132.723 16.38 133.003 15.35 133.003 13.89C133.003 12.43 132.723 11.41 132.163 10.83C131.603 10.23 130.673 9.93 129.373 9.93C128.093 9.93 127.173 10.23 126.613 10.83C126.053 11.41 125.773 12.43 125.773 13.89C125.773 15.35 126.053 16.38 126.613 16.98C127.173 17.56 128.093 17.85 129.373 17.85ZM139.929 21V6.78H143.679L143.829 8.13C144.409 7.69 145.139 7.31 146.019 6.99C146.919 6.65 147.859 6.48 148.839 6.48C150.719 6.48 152.089 6.92 152.949 7.8C153.809 8.68 154.239 10.04 154.239 11.88V21H150.189V12.09C150.189 11.13 149.989 10.45 149.589 10.05C149.209 9.65 148.489 9.45 147.429 9.45C146.809 9.45 146.179 9.59 145.539 9.87C144.919 10.15 144.399 10.5 143.979 10.92V21H139.929Z" fill="#3F0C2A"/>
</svg>
