<svg width="200" height="50" viewBox="0 0 200 50" fill="none" xmlns="http://www.w3.org/2000/svg">
<rect x="1.5" y="1.5" width="197" height="47" rx="3.5" stroke="#FF6EBC" stroke-width="3"/>
<path d="M33.8382 34V17.9H41.2382C43.0382 17.9 44.3465 18.3667 45.1632 19.3C45.9965 20.2167 46.4132 21.4667 46.4132 23.05C46.4132 24.1833 46.1299 25.15 45.5632 25.95C44.9965 26.75 44.1799 27.3083 43.1132 27.625C43.4132 27.8417 43.6465 28.075 43.8132 28.325C43.9799 28.575 44.1465 28.9083 44.3132 29.325L46.3382 34H43.5382L41.5632 29.5C41.3799 29.0667 41.1549 28.7583 40.8882 28.575C40.6382 28.3917 40.2049 28.3 39.5882 28.3H36.5632V34H33.8382ZM36.5632 26.1H40.5132C41.4965 26.1 42.2715 25.8583 42.8382 25.375C43.4049 24.8917 43.6882 24.1167 43.6882 23.05C43.6882 21.0333 42.7132 20.025 40.7632 20.025H36.5632V26.1ZM49.097 39.4V22.15H51.447L51.597 23.325C52.1303 22.8417 52.7136 22.4833 53.347 22.25C53.9803 22.0167 54.7303 21.9 55.597 21.9C57.297 21.9 58.622 22.3667 59.572 23.3C60.522 24.2167 60.997 25.7417 60.997 27.875C60.997 30.0083 60.5053 31.6083 59.522 32.675C58.5386 33.725 57.197 34.25 55.497 34.25C54.0636 34.25 52.8386 33.9167 51.822 33.25V39.4H49.097ZM54.797 32.2C57.097 32.2 58.247 30.75 58.247 27.85C58.247 26.45 57.9886 25.4583 57.472 24.875C56.9553 24.275 56.0886 23.975 54.872 23.975C53.6553 23.975 52.6386 24.3917 51.822 25.225V31.15C52.2053 31.4667 52.6303 31.725 53.097 31.925C53.5803 32.1083 54.147 32.2 54.797 32.2ZM63.1478 34V31.875H65.4478V34H63.1478ZM77.9522 34.25C77.4689 34.25 76.9356 34.2167 76.3522 34.15C75.7689 34.1 75.2106 34.0167 74.6772 33.9C74.1606 33.7833 73.7272 33.6583 73.3772 33.525V31.15C74.0439 31.4167 74.7272 31.6167 75.4272 31.75C76.1439 31.8667 76.8606 31.925 77.5772 31.925C78.8772 31.925 79.8439 31.7333 80.4772 31.35C81.1106 30.9667 81.4272 30.2917 81.4272 29.325C81.4272 28.4583 81.1356 27.8333 80.5522 27.45C79.9856 27.0667 79.1689 26.875 78.1022 26.875H75.6772L75.9022 24.85H77.9272C80.0439 24.85 81.1022 24.0167 81.1022 22.35C81.1022 21.5333 80.8189 20.9333 80.2522 20.55C79.7022 20.1667 78.8106 19.975 77.5772 19.975C76.8939 19.975 76.2022 20.0417 75.5022 20.175C74.8189 20.3083 74.2106 20.4917 73.6772 20.725V18.4C74.1772 18.2 74.8272 18.025 75.6272 17.875C76.4272 17.725 77.2189 17.65 78.0022 17.65C79.9689 17.65 81.4272 18.0667 82.3772 18.9C83.3439 19.7333 83.8272 20.8 83.8272 22.1C83.8272 22.9 83.6272 23.65 83.2272 24.35C82.8439 25.05 82.2356 25.55 81.4022 25.85C82.3689 26.1 83.0689 26.55 83.5022 27.2C83.9522 27.85 84.1772 28.6167 84.1772 29.5C84.1772 31.1167 83.6106 32.3167 82.4772 33.1C81.3439 33.8667 79.8356 34.25 77.9522 34.25ZM90.8911 34.25C90.1744 34.25 89.3911 34.1917 88.5411 34.075C87.6911 33.9583 86.9828 33.775 86.4161 33.525V31.15C86.9994 31.4 87.6661 31.5917 88.4161 31.725C89.1661 31.8583 89.8744 31.925 90.5411 31.925C91.8244 31.925 92.7661 31.7083 93.3661 31.275C93.9828 30.825 94.2911 30.0917 94.2911 29.075C94.2911 28.1417 94.0744 27.45 93.6411 27C93.2078 26.55 92.3578 26.325 91.0911 26.325H86.3411V24.675L86.7661 17.9H95.9161L95.6911 20H89.0661L88.7911 24.225H91.5161C93.4328 24.225 94.8328 24.6333 95.7161 25.45C96.5994 26.2667 97.0411 27.4917 97.0411 29.125C97.0411 30.7083 96.5244 31.9583 95.4911 32.875C94.4578 33.7917 92.9244 34.25 90.8911 34.25ZM106.282 34.45C104.582 34.45 103.216 34.125 102.182 33.475C101.149 32.8083 100.391 31.8583 99.9073 30.625C99.4407 29.375 99.2073 27.8833 99.2073 26.15C99.2073 24.35 99.4323 22.8167 99.8823 21.55C100.349 20.2833 101.099 19.3167 102.132 18.65C103.166 17.9833 104.549 17.65 106.282 17.65C108.016 17.65 109.391 17.9833 110.407 18.65C111.441 19.3167 112.182 20.2833 112.632 21.55C113.099 22.8167 113.332 24.35 113.332 26.15C113.332 27.8833 113.099 29.375 112.632 30.625C112.166 31.8583 111.416 32.8083 110.382 33.475C109.349 34.125 107.982 34.45 106.282 34.45ZM106.282 32.125C107.882 32.125 108.999 31.6 109.632 30.55C110.266 29.4833 110.582 28.0167 110.582 26.15C110.582 24.1667 110.274 22.6417 109.657 21.575C109.041 20.5083 107.916 19.975 106.282 19.975C104.649 19.975 103.516 20.5083 102.882 21.575C102.266 22.6417 101.957 24.1667 101.957 26.15C101.957 28.0167 102.274 29.4833 102.907 30.55C103.541 31.6 104.666 32.125 106.282 32.125ZM115.492 34V31.875H117.792V34H115.492ZM127.034 34.45C125.334 34.45 123.968 34.125 122.934 33.475C121.901 32.8083 121.143 31.8583 120.659 30.625C120.193 29.375 119.959 27.8833 119.959 26.15C119.959 24.35 120.184 22.8167 120.634 21.55C121.101 20.2833 121.851 19.3167 122.884 18.65C123.918 17.9833 125.301 17.65 127.034 17.65C128.768 17.65 130.143 17.9833 131.159 18.65C132.193 19.3167 132.934 20.2833 133.384 21.55C133.851 22.8167 134.084 24.35 134.084 26.15C134.084 27.8833 133.851 29.375 133.384 30.625C132.918 31.8583 132.168 32.8083 131.134 33.475C130.101 34.125 128.734 34.45 127.034 34.45ZM127.034 32.125C128.634 32.125 129.751 31.6 130.384 30.55C131.018 29.4833 131.334 28.0167 131.334 26.15C131.334 24.1667 131.026 22.6417 130.409 21.575C129.793 20.5083 128.668 19.975 127.034 19.975C125.401 19.975 124.268 20.5083 123.634 21.575C123.018 22.6417 122.709 24.1667 122.709 26.15C122.709 28.0167 123.026 29.4833 123.659 30.55C124.293 31.6 125.418 32.125 127.034 32.125ZM143.318 34.45C141.618 34.45 140.252 34.125 139.218 33.475C138.185 32.8083 137.427 31.8583 136.943 30.625C136.477 29.375 136.243 27.8833 136.243 26.15C136.243 24.35 136.468 22.8167 136.918 21.55C137.385 20.2833 138.135 19.3167 139.168 18.65C140.202 17.9833 141.585 17.65 143.318 17.65C145.052 17.65 146.427 17.9833 147.443 18.65C148.477 19.3167 149.218 20.2833 149.668 21.55C150.135 22.8167 150.368 24.35 150.368 26.15C150.368 27.8833 150.135 29.375 149.668 30.625C149.202 31.8583 148.452 32.8083 147.418 33.475C146.385 34.125 145.018 34.45 143.318 34.45ZM143.318 32.125C144.918 32.125 146.035 31.6 146.668 30.55C147.302 29.4833 147.618 28.0167 147.618 26.15C147.618 24.1667 147.31 22.6417 146.693 21.575C146.077 20.5083 144.952 19.975 143.318 19.975C141.685 19.975 140.552 20.5083 139.918 21.575C139.302 22.6417 138.993 24.1667 138.993 26.15C138.993 28.0167 139.31 29.4833 139.943 30.55C140.577 31.6 141.702 32.125 143.318 32.125ZM159.603 34.45C157.903 34.45 156.536 34.125 155.503 33.475C154.469 32.8083 153.711 31.8583 153.228 30.625C152.761 29.375 152.528 27.8833 152.528 26.15C152.528 24.35 152.753 22.8167 153.203 21.55C153.669 20.2833 154.419 19.3167 155.453 18.65C156.486 17.9833 157.869 17.65 159.603 17.65C161.336 17.65 162.711 17.9833 163.728 18.65C164.761 19.3167 165.503 20.2833 165.953 21.55C166.419 22.8167 166.653 24.35 166.653 26.15C166.653 27.8833 166.419 29.375 165.953 30.625C165.486 31.8583 164.736 32.8083 163.703 33.475C162.669 34.125 161.303 34.45 159.603 34.45ZM159.603 32.125C161.203 32.125 162.319 31.6 162.953 30.55C163.586 29.4833 163.903 28.0167 163.903 26.15C163.903 24.1667 163.594 22.6417 162.978 21.575C162.361 20.5083 161.236 19.975 159.603 19.975C157.969 19.975 156.836 20.5083 156.203 21.575C155.586 22.6417 155.278 24.1667 155.278 26.15C155.278 28.0167 155.594 29.4833 156.228 30.55C156.861 31.6 157.986 32.125 159.603 32.125Z" fill="#3F0C2A"/>
</svg>
