<svg width="50" height="50" viewBox="0 0 50 50" fill="none" xmlns="http://www.w3.org/2000/svg">
<path d="M6.25 20.8333H29.1667V25H6.25V20.8333ZM6.25 16.6667H29.1667V12.5H6.25V16.6667ZM6.25 33.3333H20.8333V29.1667H6.25V33.3333ZM37.5208 26.8125L39 25.3333C39.1927 25.1402 39.4217 24.987 39.6737 24.8824C39.9257 24.7779 40.1959 24.7241 40.4687 24.7241C40.7416 24.7241 41.0118 24.7779 41.2638 24.8824C41.5158 24.987 41.7448 25.1402 41.9375 25.3333L43.4167 26.8125C44.2292 27.625 44.2292 28.9375 43.4167 29.75L41.9375 31.2292L37.5208 26.8125ZM36.0417 28.2917L25 39.3333V43.75H29.4167L40.4583 32.7083L36.0417 28.2917V28.2917Z" fill="#FF6EBC"/>
</svg>
