<svg width="59" height="72" viewBox="0 0 59 72" fill="none" xmlns="http://www.w3.org/2000/svg">
<path d="M11.25 42.8333H34.1667V47H11.25V42.8333ZM11.25 38.6667H34.1667V34.5H11.25V38.6667ZM11.25 55.3333H25.8333V51.1667H11.25V55.3333ZM42.5208 48.8125L44 47.3333C44.1927 47.1402 44.4217 46.987 44.6737 46.8824C44.9257 46.7779 45.1959 46.7241 45.4687 46.7241C45.7416 46.7241 46.0118 46.7779 46.2638 46.8824C46.5158 46.987 46.7448 47.1402 46.9375 47.3333L48.4167 48.8125C49.2292 49.625 49.2292 50.9375 48.4167 51.75L46.9375 53.2292L42.5208 48.8125ZM41.0417 50.2917L30 61.3333V65.75H34.4167L45.4583 54.7083L41.0417 50.2917V50.2917Z" fill="#FF6EBC"/>
<path d="M5.12025 18.112C4.37358 18.112 3.70158 17.984 3.10425 17.728C2.50692 17.4613 2.03758 17.088 1.69625 16.608C1.35492 16.128 1.18425 15.568 1.18425 14.928H3.13625C3.17892 15.408 3.36558 15.8027 3.69625 16.112C4.03758 16.4213 4.51225 16.576 5.12025 16.576C5.74958 16.576 6.24025 16.4267 6.59225 16.128C6.94425 15.8187 7.12025 15.424 7.12025 14.944C7.12025 14.5707 7.00825 14.2667 6.78425 14.032C6.57092 13.7973 6.29892 13.616 5.96825 13.488C5.64825 13.36 5.20025 13.2213 4.62425 13.072C3.89892 12.88 3.30692 12.688 2.84825 12.496C2.40025 12.2933 2.01625 11.984 1.69625 11.568C1.37625 11.152 1.21625 10.5973 1.21625 9.904C1.21625 9.264 1.37625 8.704 1.69625 8.224C2.01625 7.744 2.46425 7.376 3.04025 7.12C3.61625 6.864 4.28292 6.736 5.04025 6.736C6.11758 6.736 6.99758 7.008 7.68025 7.552C8.37358 8.08533 8.75758 8.82133 8.83225 9.76H6.81625C6.78425 9.35467 6.59225 9.008 6.24025 8.72C5.88825 8.432 5.42425 8.288 4.84825 8.288C4.32558 8.288 3.89892 8.42133 3.56825 8.688C3.23758 8.95467 3.07225 9.33867 3.07225 9.84C3.07225 10.1813 3.17358 10.464 3.37625 10.688C3.58958 10.9013 3.85625 11.072 4.17625 11.2C4.49625 11.328 4.93358 11.4667 5.48825 11.616C6.22425 11.8187 6.82158 12.0213 7.28025 12.224C7.74958 12.4267 8.14425 12.7413 8.46425 13.168C8.79492 13.584 8.96025 14.144 8.96025 14.848C8.96025 15.4133 8.80558 15.9467 8.49625 16.448C8.19758 16.9493 7.75492 17.3547 7.16825 17.664C6.59225 17.9627 5.90958 18.112 5.12025 18.112ZM19.2565 9.184V18H17.4325V16.96C17.1445 17.3227 16.7658 17.6107 16.2965 17.824C15.8378 18.0267 15.3472 18.128 14.8245 18.128C14.1312 18.128 13.5072 17.984 12.9525 17.696C12.4085 17.408 11.9765 16.9813 11.6565 16.416C11.3472 15.8507 11.1925 15.168 11.1925 14.368V9.184H13.0005V14.096C13.0005 14.8853 13.1978 15.4933 13.5925 15.92C13.9872 16.336 14.5258 16.544 15.2085 16.544C15.8912 16.544 16.4298 16.336 16.8245 15.92C17.2298 15.4933 17.4325 14.8853 17.4325 14.096V9.184H19.2565ZM23.6471 10.496C23.9565 10.0693 24.3778 9.72267 24.9111 9.456C25.4551 9.17867 26.0578 9.04 26.7191 9.04C27.4978 9.04 28.2018 9.22667 28.8311 9.6C29.4605 9.97333 29.9565 10.5067 30.3191 11.2C30.6818 11.8827 30.8631 12.6667 30.8631 13.552C30.8631 14.4373 30.6818 15.232 30.3191 15.936C29.9565 16.6293 29.4551 17.1733 28.8151 17.568C28.1858 17.952 27.4871 18.144 26.7191 18.144C26.0365 18.144 25.4285 18.0107 24.8951 17.744C24.3725 17.4773 23.9565 17.136 23.6471 16.72V18H21.8231V6.16H23.6471V10.496ZM29.0071 13.552C29.0071 12.944 28.8791 12.4213 28.6231 11.984C28.3778 11.536 28.0471 11.2 27.6311 10.976C27.2258 10.7413 26.7885 10.624 26.3191 10.624C25.8605 10.624 25.4231 10.7413 25.0071 10.976C24.6018 11.2107 24.2711 11.552 24.0151 12C23.7698 12.448 23.6471 12.976 23.6471 13.584C23.6471 14.192 23.7698 14.7253 24.0151 15.184C24.2711 15.632 24.6018 15.9733 25.0071 16.208C25.4231 16.4427 25.8605 16.56 26.3191 16.56C26.7885 16.56 27.2258 16.4427 27.6311 16.208C28.0471 15.9627 28.3778 15.6107 28.6231 15.152C28.8791 14.6933 29.0071 14.16 29.0071 13.552ZM43.4989 9.04C44.1922 9.04 44.8109 9.184 45.3549 9.472C45.9095 9.76 46.3415 10.1867 46.6509 10.752C46.9709 11.3173 47.1309 12 47.1309 12.8V18H45.3229V13.072C45.3229 12.2827 45.1255 11.68 44.7309 11.264C44.3362 10.8373 43.7975 10.624 43.1149 10.624C42.4322 10.624 41.8882 10.8373 41.4829 11.264C41.0882 11.68 40.8909 12.2827 40.8909 13.072V18H39.0829V13.072C39.0829 12.2827 38.8855 11.68 38.4909 11.264C38.0962 10.8373 37.5575 10.624 36.8749 10.624C36.1922 10.624 35.6482 10.8373 35.2429 11.264C34.8482 11.68 34.6509 12.2827 34.6509 13.072V18H32.8269V9.184H34.6509V10.192C34.9495 9.82933 35.3282 9.54667 35.7869 9.344C36.2455 9.14133 36.7362 9.04 37.2589 9.04C37.9629 9.04 38.5922 9.18933 39.1469 9.488C39.7015 9.78667 40.1282 10.2187 40.4269 10.784C40.6935 10.2507 41.1095 9.82933 41.6749 9.52C42.2402 9.2 42.8482 9.04 43.4989 9.04ZM50.5399 8.016C50.2092 8.016 49.9319 7.904 49.7079 7.68C49.4839 7.456 49.3719 7.17867 49.3719 6.848C49.3719 6.51733 49.4839 6.24 49.7079 6.016C49.9319 5.792 50.2092 5.68 50.5399 5.68C50.8599 5.68 51.1319 5.792 51.3559 6.016C51.5799 6.24 51.6919 6.51733 51.6919 6.848C51.6919 7.17867 51.5799 7.456 51.3559 7.68C51.1319 7.904 50.8599 8.016 50.5399 8.016ZM51.4359 9.184V18H49.6119V9.184H51.4359ZM56.1186 10.672V15.552C56.1186 15.8827 56.1933 16.1227 56.3426 16.272C56.5026 16.4107 56.7693 16.48 57.1426 16.48H58.2626V18H56.8226C56.0013 18 55.372 17.808 54.9346 17.424C54.4973 17.04 54.2786 16.416 54.2786 15.552V10.672H53.2386V9.184H54.2786V6.992H56.1186V9.184H58.2626V10.672H56.1186Z" fill="#FF6EBC"/>
</svg>
