<svg width="250" height="60" viewBox="0 0 250 60" fill="none" xmlns="http://www.w3.org/2000/svg">
<rect width="250" height="60" rx="5" fill="#FF6EBC"/>
<path d="M63.4744 38.25C62.1077 38.25 60.9411 38.0583 59.9744 37.675V35.375C60.3744 35.5417 60.8411 35.6833 61.3744 35.8C61.9244 35.9 62.4661 35.95 62.9994 35.95C64.1161 35.95 64.8911 35.725 65.3244 35.275C65.7744 34.8083 65.9994 34.0667 65.9994 33.05V21.9H68.7244V33.5C68.7244 35.0333 68.2827 36.2083 67.3994 37.025C66.5327 37.8417 65.2244 38.25 63.4744 38.25ZM77.416 38.25C75.2827 38.25 73.716 37.7167 72.716 36.65C71.7327 35.5833 71.241 34.0583 71.241 32.075C71.241 30.0917 71.741 28.5667 72.741 27.5C73.741 26.4333 75.2993 25.9 77.416 25.9C79.5493 25.9 81.116 26.4333 82.116 27.5C83.116 28.5667 83.616 30.0917 83.616 32.075C83.616 34.0583 83.116 35.5833 82.116 36.65C81.1327 37.7167 79.566 38.25 77.416 38.25ZM77.416 35.95C78.666 35.95 79.5493 35.65 80.066 35.05C80.5993 34.4333 80.866 33.4417 80.866 32.075C80.866 30.7083 80.5993 29.725 80.066 29.125C79.5493 28.525 78.666 28.225 77.416 28.225C76.1827 28.225 75.2993 28.525 74.766 29.125C74.2493 29.725 73.991 30.7083 73.991 32.075C73.991 33.4417 74.2493 34.4333 74.766 35.05C75.2993 35.65 76.1827 35.95 77.416 35.95ZM86.7791 23.675V21.425H89.7541V23.675H86.7791ZM87.0041 38V28.225H85.2041L85.4541 26.15H89.7291V38H87.0041ZM92.908 38V26.15H95.408L95.533 27.4C96.0663 26.9833 96.6997 26.6333 97.433 26.35C98.183 26.05 99.008 25.9 99.908 25.9C101.441 25.9 102.558 26.2583 103.258 26.975C103.958 27.6917 104.308 28.8083 104.308 30.325V38H101.608V30.45C101.608 29.5333 101.416 28.8917 101.033 28.525C100.666 28.1583 99.9663 27.975 98.933 27.975C98.3163 27.975 97.708 28.1 97.108 28.35C96.5247 28.6 96.033 28.925 95.633 29.325V38H92.908ZM117.923 42.4C117.04 42.4 116.156 42.3417 115.273 42.225C114.39 42.125 113.64 41.9667 113.023 41.75V39.65C113.69 39.8667 114.456 40.0333 115.323 40.15C116.19 40.2667 117.015 40.325 117.798 40.325C118.998 40.325 119.873 40.2583 120.423 40.125C120.973 39.9917 121.248 39.6917 121.248 39.225C121.248 38.875 121.115 38.625 120.848 38.475C120.581 38.3417 120.073 38.275 119.323 38.275H116.123C113.973 38.275 112.898 37.5167 112.898 36C112.898 35.5167 113.04 35.0667 113.323 34.65C113.606 34.2333 114.056 33.9167 114.673 33.7C113.99 33.3667 113.481 32.9083 113.148 32.325C112.831 31.7417 112.673 31.0417 112.673 30.225C112.673 28.7083 113.123 27.6083 114.023 26.925C114.94 26.2417 116.306 25.9 118.123 25.9C118.506 25.9 118.906 25.9333 119.323 26C119.74 26.05 120.065 26.1 120.298 26.15H124.648L124.573 27.925H122.573C122.89 28.1917 123.123 28.525 123.273 28.925C123.423 29.325 123.498 29.7583 123.498 30.225C123.498 31.4917 123.115 32.4917 122.348 33.225C121.581 33.9417 120.423 34.3 118.873 34.3C118.606 34.3 118.356 34.2917 118.123 34.275C117.906 34.2417 117.665 34.2083 117.398 34.175C116.898 34.225 116.448 34.3583 116.048 34.575C115.648 34.7917 115.448 35.0833 115.448 35.45C115.448 35.7 115.548 35.8833 115.748 36C115.948 36.1 116.281 36.15 116.748 36.15H120.073C121.256 36.15 122.165 36.4083 122.798 36.925C123.448 37.425 123.773 38.1583 123.773 39.125C123.773 40.2917 123.265 41.125 122.248 41.625C121.248 42.1417 119.806 42.4 117.923 42.4ZM118.123 32.575C119.206 32.575 119.956 32.3917 120.373 32.025C120.806 31.6583 121.023 31.0333 121.023 30.15C121.023 29.2667 120.806 28.625 120.373 28.225C119.956 27.825 119.206 27.625 118.123 27.625C117.106 27.625 116.365 27.8167 115.898 28.2C115.431 28.5833 115.198 29.2333 115.198 30.15C115.198 31 115.415 31.6167 115.848 32C116.298 32.3833 117.056 32.575 118.123 32.575ZM126.331 38V26.15H128.831L128.981 27.525C129.548 27.1583 130.223 26.825 131.006 26.525C131.789 26.225 132.564 26.0167 133.331 25.9V27.975C132.864 28.0583 132.356 28.1833 131.806 28.35C131.273 28.5 130.764 28.675 130.281 28.875C129.798 29.0583 129.389 29.25 129.056 29.45V38H126.331ZM139.59 38.25C138.174 38.25 137.082 37.8583 136.315 37.075C135.565 36.2917 135.19 35.1417 135.19 33.625V26.15H137.915V33.625C137.915 34.5083 138.132 35.1583 138.565 35.575C138.999 35.9917 139.665 36.2 140.565 36.2C141.232 36.2 141.849 36.075 142.415 35.825C142.982 35.575 143.474 35.2417 143.89 34.825V26.15H146.59V38H144.115L143.99 36.775C143.457 37.1917 142.824 37.5417 142.09 37.825C141.357 38.1083 140.524 38.25 139.59 38.25ZM149.768 43.4V26.15H152.118L152.268 27.325C152.802 26.8417 153.385 26.4833 154.018 26.25C154.652 26.0167 155.402 25.9 156.268 25.9C157.968 25.9 159.293 26.3667 160.243 27.3C161.193 28.2167 161.668 29.7417 161.668 31.875C161.668 34.0083 161.177 35.6083 160.193 36.675C159.21 37.725 157.868 38.25 156.168 38.25C154.735 38.25 153.51 37.9167 152.493 37.25V43.4H149.768ZM155.468 36.2C157.768 36.2 158.918 34.75 158.918 31.85C158.918 30.45 158.66 29.4583 158.143 28.875C157.627 28.275 156.76 27.975 155.543 27.975C154.327 27.975 153.31 28.3917 152.493 29.225V35.15C152.877 35.4667 153.302 35.725 153.768 35.925C154.252 36.1083 154.818 36.2 155.468 36.2ZM170.081 38V21.15H172.806V30.9L177.781 26.15H180.906L176.081 30.925L181.181 38H178.306L174.381 32.375L172.806 33.875V38H170.081ZM187.873 38.25C185.806 38.25 184.206 37.7417 183.073 36.725C181.94 35.7083 181.373 34.15 181.373 32.05C181.373 30.15 181.856 28.65 182.823 27.55C183.79 26.45 185.256 25.9 187.223 25.9C189.023 25.9 190.373 26.375 191.273 27.325C192.19 28.2583 192.648 29.4667 192.648 30.95V33.15H183.973C184.106 34.3 184.523 35.0917 185.223 35.525C185.923 35.9583 186.99 36.175 188.423 36.175C189.023 36.175 189.64 36.1167 190.273 36C190.906 35.8833 191.456 35.7333 191.923 35.55V37.55C191.39 37.7833 190.773 37.9583 190.073 38.075C189.39 38.1917 188.656 38.25 187.873 38.25ZM183.973 31.375H190.248V30.55C190.248 29.7333 190.023 29.1 189.573 28.65C189.123 28.1833 188.365 27.95 187.298 27.95C186.031 27.95 185.156 28.225 184.673 28.775C184.206 29.325 183.973 30.1917 183.973 31.375ZM198.251 38.25C197.284 38.25 196.551 38.0167 196.051 37.55C195.551 37.0667 195.301 36.275 195.301 35.175V21.15H198.026V34.925C198.026 35.3917 198.109 35.7083 198.276 35.875C198.442 36.0417 198.692 36.125 199.026 36.125C199.426 36.125 199.809 36.075 200.176 35.975V37.95C199.859 38.0667 199.551 38.1417 199.251 38.175C198.967 38.225 198.634 38.25 198.251 38.25ZM206.007 38.25C205.257 38.25 204.557 38.1167 203.907 37.85C203.274 37.5833 202.766 37.1833 202.382 36.65C201.999 36.1 201.807 35.425 201.807 34.625C201.807 33.4917 202.191 32.5833 202.957 31.9C203.741 31.2 204.941 30.85 206.557 30.85H210.357V30.325C210.357 29.7583 210.266 29.3083 210.082 28.975C209.916 28.6417 209.599 28.4 209.132 28.25C208.682 28.1 208.016 28.025 207.132 28.025C205.732 28.025 204.424 28.2333 203.207 28.65V26.625C203.741 26.4083 204.391 26.2333 205.157 26.1C205.924 25.9667 206.749 25.9 207.632 25.9C209.366 25.9 210.682 26.25 211.582 26.95C212.499 27.65 212.957 28.7917 212.957 30.375V38H210.632L210.457 36.8C209.974 37.2667 209.374 37.625 208.657 37.875C207.957 38.125 207.074 38.25 206.007 38.25ZM206.732 36.3C207.549 36.3 208.257 36.1667 208.857 35.9C209.474 35.6167 209.974 35.2417 210.357 34.775V32.7H206.607C205.807 32.7 205.224 32.8583 204.857 33.175C204.507 33.475 204.332 33.9417 204.332 34.575C204.332 35.1917 204.541 35.6333 204.957 35.9C205.374 36.1667 205.966 36.3 206.732 36.3ZM219.929 38.25C219.113 38.25 218.329 38.1917 217.579 38.075C216.846 37.9583 216.238 37.8167 215.754 37.65V35.35C216.321 35.5667 216.946 35.7333 217.629 35.85C218.313 35.9667 218.963 36.025 219.579 36.025C220.513 36.025 221.179 35.9417 221.579 35.775C221.979 35.6083 222.179 35.2833 222.179 34.8C222.179 34.45 222.054 34.175 221.804 33.975C221.571 33.775 221.213 33.5917 220.729 33.425C220.263 33.2583 219.663 33.0583 218.929 32.825C218.229 32.5917 217.621 32.3417 217.104 32.075C216.588 31.7917 216.188 31.4333 215.904 31C215.621 30.5667 215.479 30 215.479 29.3C215.479 28.2167 215.871 27.3833 216.654 26.8C217.438 26.2 218.696 25.9 220.429 25.9C221.113 25.9 221.763 25.95 222.379 26.05C222.996 26.15 223.521 26.275 223.954 26.425V28.7C223.488 28.5167 222.971 28.375 222.404 28.275C221.854 28.175 221.338 28.125 220.854 28.125C219.988 28.125 219.329 28.2 218.879 28.35C218.446 28.5 218.229 28.8 218.229 29.25C218.229 29.7167 218.454 30.05 218.904 30.25C219.371 30.4333 220.113 30.6917 221.129 31.025C222.063 31.3083 222.804 31.6083 223.354 31.925C223.904 32.2417 224.296 32.625 224.529 33.075C224.779 33.5083 224.904 34.075 224.904 34.775C224.904 35.9417 224.479 36.8167 223.629 37.4C222.779 37.9667 221.546 38.25 219.929 38.25Z" fill="#3F0C2A"/>
<g clip-path="url(#clip0_129_41)">
<path d="M35.2061 39.9614C35.1247 40.2707 35.0636 40.584 35.0229 40.9014C34.9823 41.2188 34.9538 41.5443 34.9375 41.8779C33.8958 41.7559 32.903 41.5117 31.959 41.1455C31.015 40.7793 30.1401 40.3114 29.3345 39.7417C28.5288 39.172 27.7964 38.5129 27.1372 37.7642C26.478 37.0155 25.9165 36.2017 25.4526 35.3228C24.9888 34.4438 24.6307 33.5161 24.3784 32.5396C24.1261 31.563 24 30.5498 24 29.5C24 28.3525 24.1465 27.2458 24.4395 26.1797C24.7324 25.1136 25.1515 24.1167 25.6968 23.189C26.242 22.2612 26.8931 21.4189 27.6499 20.6621C28.4067 19.9053 29.2531 19.2542 30.189 18.709C31.1248 18.1637 32.1177 17.7446 33.1675 17.4517C34.2173 17.1587 35.3281 17.0081 36.5 17C37.6475 17 38.7502 17.1465 39.8081 17.4395C40.866 17.7324 41.863 18.1556 42.7988 18.709C43.7347 19.2624 44.577 19.9134 45.3257 20.6621C46.0744 21.4108 46.7295 22.2572 47.291 23.2012C47.8525 24.1452 48.2716 25.138 48.5483 26.1797C48.825 27.2214 48.9756 28.3281 49 29.5H48.1333C48.0194 29.3128 47.9014 29.1297 47.7793 28.9507C47.6572 28.7716 47.5148 28.6007 47.352 28.438C47.3032 27.73 47.1771 27.0423 46.9736 26.375H32.02C31.9549 26.8958 31.9061 27.4126 31.8735 27.9253C31.841 28.438 31.8206 28.9629 31.8125 29.5C31.8125 30.029 31.8288 30.5498 31.8613 31.0625C31.8939 31.5752 31.9468 32.096 32.02 32.625H36.5C36.5 32.8854 36.5203 33.1458 36.561 33.4062C36.6017 33.6667 36.6546 33.9271 36.7197 34.1875H32.2886C32.3862 34.6514 32.5164 35.16 32.6792 35.7134C32.842 36.2668 33.0454 36.8079 33.2895 37.3369C33.5337 37.8659 33.8145 38.3623 34.1318 38.8262C34.4492 39.29 34.8073 39.6685 35.2061 39.9614ZM46.3755 24.8125C46.0581 24.1533 45.6838 23.5348 45.2524 22.957C44.8211 22.3792 44.3328 21.8503 43.7876 21.3701C43.2423 20.89 42.6645 20.4627 42.0542 20.0884C41.4438 19.714 40.7847 19.4089 40.0767 19.1729C40.3696 19.5798 40.63 20.0111 40.8579 20.4668C41.0858 20.9225 41.2933 21.3905 41.4805 21.8706C41.6676 22.3507 41.8263 22.839 41.9565 23.3354C42.0867 23.8319 42.2007 24.3242 42.2983 24.8125H46.3755ZM36.5 18.5625C36.0931 18.5625 35.7187 18.6724 35.377 18.8921C35.0352 19.1118 34.7178 19.4007 34.4248 19.7588C34.1318 20.1169 33.8714 20.5197 33.6436 20.9673C33.4157 21.4149 33.2082 21.8747 33.021 22.3467C32.8338 22.8187 32.6833 23.2663 32.5693 23.6895C32.4554 24.1126 32.3618 24.487 32.2886 24.8125H40.7114C40.6463 24.4951 40.5527 24.1208 40.4307 23.6895C40.3086 23.2581 40.158 22.8105 39.979 22.3467C39.8 21.8828 39.5965 21.4271 39.3686 20.9795C39.1408 20.5319 38.8804 20.125 38.5874 19.7588C38.2944 19.3926 37.973 19.1037 37.623 18.8921C37.2731 18.6805 36.8988 18.5706 36.5 18.5625ZM32.9355 19.1606C32.2438 19.3966 31.5846 19.6978 30.958 20.064C30.3314 20.4302 29.7495 20.8574 29.2124 21.3457C28.6753 21.834 28.187 22.367 27.7476 22.9448C27.3081 23.5226 26.9338 24.1452 26.6245 24.8125H30.7017C30.7912 24.3649 30.901 23.8888 31.0312 23.3843C31.1615 22.8797 31.3242 22.3752 31.5195 21.8706C31.7148 21.366 31.9264 20.8818 32.1543 20.418C32.3822 19.9541 32.6426 19.535 32.9355 19.1606ZM25.5625 29.5C25.5625 30.5824 25.7131 31.624 26.0142 32.625H30.4453C30.3802 32.1042 30.3314 31.5874 30.2988 31.0747C30.2663 30.562 30.25 30.0371 30.25 29.5C30.25 28.971 30.2663 28.4502 30.2988 27.9375C30.3314 27.4248 30.3802 26.904 30.4453 26.375H26.0142C25.7131 27.376 25.5625 28.4176 25.5625 29.5ZM26.6001 34.1875C26.9175 34.8467 27.2918 35.4652 27.7231 36.043C28.1545 36.6208 28.6427 37.1538 29.188 37.6421C29.7332 38.1304 30.3192 38.5535 30.9458 38.9116C31.5724 39.2697 32.2316 39.5749 32.9233 39.8271C32.6304 39.4202 32.37 38.9889 32.1421 38.5332C31.9142 38.0775 31.7067 37.6095 31.5195 37.1294C31.3324 36.6493 31.1737 36.161 31.0435 35.6646C30.9132 35.1681 30.7952 34.6758 30.6895 34.1875H26.6001ZM45.5088 36.397C46.0378 36.6655 46.5179 36.9951 46.9492 37.3857C47.3805 37.7764 47.7467 38.2158 48.0478 38.7041C48.349 39.1924 48.585 39.7132 48.7559 40.2666C48.9268 40.82 49.0081 41.3978 49 42H47.4375C47.4375 41.3571 47.3154 40.7508 47.0713 40.1812C46.8271 39.6115 46.4935 39.1151 46.0703 38.6919C45.6471 38.2687 45.1466 37.931 44.5688 37.6787C43.991 37.4264 43.3848 37.3044 42.75 37.3125C42.099 37.3125 41.4927 37.4346 40.9311 37.6787C40.3696 37.9229 39.8732 38.2565 39.4419 38.6797C39.0106 39.1029 38.6728 39.6034 38.4287 40.1812C38.1846 40.759 38.0625 41.3652 38.0625 42H36.5C36.5 41.4059 36.5814 40.8322 36.7441 40.2788C36.9069 39.7254 37.1388 39.2005 37.4399 38.7041C37.741 38.2077 38.1073 37.7682 38.5386 37.3857C38.9699 37.0033 39.45 36.6737 39.979 36.397C39.3686 35.9575 38.8966 35.4082 38.563 34.749C38.2293 34.0898 38.0625 33.3818 38.0625 32.625C38.0625 31.9821 38.1846 31.3758 38.4287 30.8062C38.6728 30.2365 39.0065 29.7401 39.4297 29.3169C39.8529 28.8937 40.3493 28.556 40.9189 28.3037C41.4886 28.0514 42.099 27.9294 42.75 27.9375C43.3929 27.9375 43.9992 28.0596 44.5688 28.3037C45.1385 28.5479 45.6349 28.8815 46.0581 29.3047C46.4813 29.7279 46.819 30.2284 47.0713 30.8062C47.3236 31.384 47.4456 31.9902 47.4375 32.625C47.4375 33.3737 47.2707 34.0776 46.937 34.7368C46.6033 35.396 46.1273 35.9494 45.5088 36.397ZM42.75 35.75C43.1813 35.75 43.5841 35.6686 43.9585 35.5059C44.3328 35.3431 44.6665 35.1193 44.9595 34.8345C45.2524 34.5496 45.4762 34.2201 45.6309 33.8457C45.7855 33.4714 45.8669 33.0645 45.875 32.625C45.875 32.1937 45.7936 31.7909 45.6309 31.4165C45.4681 31.0422 45.2443 30.7085 44.9595 30.4155C44.6746 30.1226 44.345 29.8988 43.9707 29.7441C43.5964 29.5895 43.1895 29.5081 42.75 29.5C42.3187 29.5 41.9159 29.5814 41.5415 29.7441C41.1672 29.9069 40.8335 30.1307 40.5405 30.4155C40.2476 30.7004 40.0238 31.0299 39.8691 31.4043C39.7145 31.7786 39.6331 32.1855 39.625 32.625C39.625 33.0563 39.7064 33.4591 39.8691 33.8335C40.0319 34.2078 40.2557 34.5415 40.5405 34.8345C40.8254 35.1274 41.1549 35.3512 41.5293 35.5059C41.9036 35.6605 42.3105 35.7419 42.75 35.75Z" fill="black"/>
</g>
<defs>
<clipPath id="clip0_129_41">
<rect width="25" height="25" fill="white" transform="translate(24 17)"/>
</clipPath>
</defs>
</svg>
