<svg width="163" height="22" viewBox="0 0 163 22" fill="none" xmlns="http://www.w3.org/2000/svg">
<path d="M0.71 21V1.68H8.81C11.71 1.68 13.89 2.43 15.35 3.93C16.83 5.41 17.57 7.91 17.57 11.43C17.57 14.75 16.84 17.18 15.38 18.72C13.94 20.24 11.75 21 8.81 21H0.71ZM4.76 17.88H8.24C9.38 17.88 10.34 17.71 11.12 17.37C11.9 17.01 12.48 16.37 12.86 15.45C13.26 14.51 13.46 13.17 13.46 11.43C13.46 9.69 13.28 8.36 12.92 7.44C12.56 6.52 12 5.89 11.24 5.55C10.48 5.21 9.48 5.04 8.24 5.04H4.76V17.88ZM24.428 21.3C23.528 21.3 22.688 21.14 21.908 20.82C21.148 20.48 20.528 19.99 20.048 19.35C19.588 18.69 19.358 17.87 19.358 16.89C19.358 15.49 19.848 14.37 20.828 13.53C21.828 12.69 23.298 12.27 25.238 12.27H29.438V11.88C29.438 11 29.188 10.38 28.688 10.02C28.208 9.66 27.228 9.48 25.748 9.48C24.128 9.48 22.568 9.73 21.068 10.23V7.38C21.728 7.12 22.528 6.91 23.468 6.75C24.428 6.57 25.468 6.48 26.588 6.48C28.728 6.48 30.378 6.92 31.538 7.8C32.718 8.66 33.308 10.05 33.308 11.97V21H29.798L29.588 19.71C29.028 20.21 28.338 20.6 27.518 20.88C26.698 21.16 25.668 21.3 24.428 21.3ZM25.538 18.63C26.438 18.63 27.218 18.48 27.878 18.18C28.538 17.88 29.058 17.5 29.438 17.04V14.79H25.328C23.748 14.79 22.958 15.44 22.958 16.74C22.958 18 23.818 18.63 25.538 18.63ZM37.3194 21V9.9H35.3394V6.78H37.3194V5.34C37.3194 3.86 37.7394 2.65 38.5794 1.71C39.4194 0.769999 40.6594 0.299998 42.2994 0.299998C42.9594 0.299998 43.5494 0.349998 44.0694 0.449998C44.5894 0.549999 45.0694 0.69 45.5094 0.87V3.66C45.2094 3.56 44.9194 3.48 44.6394 3.42C44.3594 3.36 44.0494 3.33 43.7094 3.33C42.8494 3.33 42.2394 3.49 41.8794 3.81C41.5394 4.11 41.3694 4.64 41.3694 5.4V6.78H44.9694L44.7894 9.9H41.3694V21H37.3194ZM52.434 21.3C50.794 21.3 49.574 20.87 48.774 20.01C47.994 19.15 47.604 17.98 47.604 16.5V9.9H45.594V6.78H47.604V3.72L51.654 2.52V6.78H55.254L55.014 9.9H51.654V16.23C51.654 17.01 51.834 17.55 52.194 17.85C52.554 18.13 53.114 18.27 53.874 18.27C54.434 18.27 55.014 18.17 55.614 17.97V20.76C55.174 20.94 54.694 21.07 54.174 21.15C53.654 21.25 53.074 21.3 52.434 21.3ZM62.1624 21.3C61.2624 21.3 60.4224 21.14 59.6424 20.82C58.8824 20.48 58.2624 19.99 57.7824 19.35C57.3224 18.69 57.0924 17.87 57.0924 16.89C57.0924 15.49 57.5824 14.37 58.5624 13.53C59.5624 12.69 61.0324 12.27 62.9724 12.27H67.1724V11.88C67.1724 11 66.9224 10.38 66.4224 10.02C65.9424 9.66 64.9624 9.48 63.4824 9.48C61.8624 9.48 60.3024 9.73 58.8024 10.23V7.38C59.4624 7.12 60.2624 6.91 61.2024 6.75C62.1624 6.57 63.2024 6.48 64.3224 6.48C66.4624 6.48 68.1124 6.92 69.2724 7.8C70.4524 8.66 71.0424 10.05 71.0424 11.97V21H67.5324L67.3224 19.71C66.7624 20.21 66.0724 20.6 65.2524 20.88C64.4324 21.16 63.4024 21.3 62.1624 21.3ZM63.2724 18.63C64.1724 18.63 64.9524 18.48 65.6124 18.18C66.2724 17.88 66.7924 17.5 67.1724 17.04V14.79H63.0624C61.4824 14.79 60.6924 15.44 60.6924 16.74C60.6924 18 61.5524 18.63 63.2724 18.63ZM74.3038 21V6.78H78.0538L78.2338 8.25C78.8738 7.85 79.6638 7.49 80.6038 7.17C81.5638 6.83 82.5038 6.6 83.4238 6.48V9.54C82.8838 9.62 82.2938 9.74 81.6538 9.9C81.0138 10.06 80.4038 10.24 79.8238 10.44C79.2438 10.64 78.7538 10.85 78.3538 11.07V21H74.3038ZM92.087 21V1.68H96.137V9.87L103.577 1.68H108.227L101.237 9.51L108.587 21H104.267L98.717 12.09L96.137 14.88V21H92.087ZM116.841 21.3C114.381 21.3 112.431 20.69 110.991 19.47C109.551 18.23 108.831 16.36 108.831 13.86C108.831 11.6 109.431 9.81 110.631 8.49C111.851 7.15 113.661 6.48 116.061 6.48C118.261 6.48 119.941 7.06 121.101 8.22C122.281 9.36 122.871 10.86 122.871 12.72V15.3H112.581C112.801 16.44 113.321 17.22 114.141 17.64C114.981 18.06 116.161 18.27 117.681 18.27C118.441 18.27 119.211 18.2 119.991 18.06C120.791 17.92 121.471 17.74 122.031 17.52V20.4C121.371 20.7 120.601 20.92 119.721 21.06C118.841 21.22 117.881 21.3 116.841 21.3ZM112.581 12.81H119.331V12.03C119.331 11.21 119.091 10.57 118.611 10.11C118.131 9.63 117.321 9.39 116.181 9.39C114.841 9.39 113.901 9.66 113.361 10.2C112.841 10.74 112.581 11.61 112.581 12.81ZM129.65 21.3C128.27 21.3 127.26 20.98 126.62 20.34C126 19.7 125.69 18.68 125.69 17.28V0.779999H129.74V16.95C129.74 17.45 129.84 17.8 130.04 18C130.24 18.18 130.53 18.27 130.91 18.27C131.43 18.27 131.9 18.2 132.32 18.06V20.85C131.56 21.15 130.67 21.3 129.65 21.3ZM139.096 21.3C138.196 21.3 137.356 21.14 136.576 20.82C135.816 20.48 135.196 19.99 134.716 19.35C134.256 18.69 134.026 17.87 134.026 16.89C134.026 15.49 134.516 14.37 135.496 13.53C136.496 12.69 137.966 12.27 139.906 12.27H144.106V11.88C144.106 11 143.856 10.38 143.356 10.02C142.876 9.66 141.896 9.48 140.416 9.48C138.796 9.48 137.236 9.73 135.736 10.23V7.38C136.396 7.12 137.196 6.91 138.136 6.75C139.096 6.57 140.136 6.48 141.256 6.48C143.396 6.48 145.046 6.92 146.206 7.8C147.386 8.66 147.976 10.05 147.976 11.97V21H144.466L144.256 19.71C143.696 20.21 143.006 20.6 142.186 20.88C141.366 21.16 140.336 21.3 139.096 21.3ZM140.206 18.63C141.106 18.63 141.886 18.48 142.546 18.18C143.206 17.88 143.726 17.5 144.106 17.04V14.79H139.996C138.416 14.79 137.626 15.44 137.626 16.74C137.626 18 138.486 18.63 140.206 18.63ZM156.247 21.3C155.187 21.3 154.177 21.22 153.217 21.06C152.257 20.92 151.487 20.74 150.907 20.52V17.16C151.607 17.44 152.397 17.66 153.277 17.82C154.157 17.96 154.967 18.03 155.707 18.03C156.707 18.03 157.407 17.97 157.807 17.85C158.227 17.73 158.437 17.46 158.437 17.04C158.437 16.56 158.117 16.21 157.477 15.99C156.857 15.77 155.927 15.46 154.687 15.06C153.387 14.62 152.387 14.09 151.687 13.47C150.987 12.85 150.637 11.93 150.637 10.71C150.637 9.35 151.127 8.31 152.107 7.59C153.107 6.85 154.707 6.48 156.907 6.48C157.787 6.48 158.617 6.55 159.397 6.69C160.177 6.81 160.837 6.96 161.377 7.14V10.47C160.837 10.21 160.217 10.02 159.517 9.9C158.817 9.76 158.167 9.69 157.567 9.69C156.707 9.69 156.017 9.75 155.497 9.87C154.997 9.99 154.747 10.25 154.747 10.65C154.747 11.09 155.017 11.4 155.557 11.58C156.117 11.76 156.977 12.03 158.137 12.39C159.277 12.73 160.167 13.1 160.807 13.5C161.447 13.9 161.897 14.38 162.157 14.94C162.417 15.48 162.547 16.16 162.547 16.98C162.547 19.86 160.447 21.3 156.247 21.3Z" fill="#3F0C2A"/>
</svg>
