<svg width="70" height="60" viewBox="0 0 70 60" fill="none" xmlns="http://www.w3.org/2000/svg">
<path d="M24.9985 45.5746C20.8651 45.5746 17.0938 44.6158 13.6848 42.6982C10.2757 40.738 7.56981 38.0321 5.567 34.5804C3.60681 31.0862 2.62671 27.1658 2.62671 22.8192C2.62671 18.4727 3.60681 14.5736 5.567 11.122C7.56981 7.62771 10.2757 4.92178 13.6848 3.0042C17.0938 1.044 20.8651 0.0639038 24.9985 0.0639038C29.1746 0.0639038 32.9672 1.044 36.3762 3.0042C39.7852 4.92178 42.4698 7.6064 44.43 11.0581C46.3902 14.5097 47.3703 18.4301 47.3703 22.8192C47.3703 27.2084 46.3902 31.1288 44.43 34.5804C42.4698 38.0321 39.7852 40.738 36.3762 42.6982C32.9672 44.6158 29.1746 45.5746 24.9985 45.5746ZM24.9985 40.5249C28.1093 40.5249 30.9004 39.8005 33.372 38.3517C35.8861 36.9028 37.8463 34.8361 39.2526 32.1515C40.7014 29.4669 41.4258 26.3561 41.4258 22.8192C41.4258 19.2397 40.7014 16.129 39.2526 13.487C37.8463 10.8024 35.9074 8.73565 33.4359 7.28681C30.9643 5.83796 28.1519 5.11354 24.9985 5.11354C21.8452 5.11354 19.0327 5.83796 16.5612 7.28681C14.0896 8.73565 12.1294 10.8024 10.6806 13.487C9.27433 16.129 8.57122 19.2397 8.57122 22.8192C8.57122 26.3561 9.27433 29.4669 10.6806 32.1515C12.1294 34.8361 14.0896 36.9028 16.5612 38.3517C19.0753 39.8005 21.8878 40.5249 24.9985 40.5249Z" fill="#BE2A7A"/>
<path d="M25.0984 22.8193C25.0984 18.4727 26.0785 14.5736 28.0387 11.122C29.9989 7.62772 32.6622 4.90049 36.0286 2.9403C39.4377 0.980098 43.2089 0 47.3424 0C52.2002 0 56.4402 1.17186 60.0623 3.51557C62.3687 5.00794 64.2777 6.8977 65.7894 9.18485C67.075 11.1301 65.4793 13.487 63.1476 13.487C61.8515 13.487 60.7026 12.7134 60.0089 11.6185C58.8716 9.82326 57.4192 8.37936 55.6519 7.28682C53.3508 5.83798 50.5809 5.11356 47.3424 5.11356C44.2316 5.11356 41.4405 5.83798 38.9689 7.28682C36.4974 8.73566 34.5585 10.8024 33.1522 13.487C31.746 16.129 31.0429 19.2398 31.0429 22.8193C31.0429 26.3561 31.746 29.4669 33.1522 32.1515C34.5585 34.7935 36.4974 36.8389 38.9689 38.2878C41.4405 39.7366 44.2316 40.461 47.3424 40.461C50.5809 40.461 53.3508 39.7579 55.6519 38.3517C57.4207 37.2582 58.874 35.8128 60.0118 34.0155C60.7033 32.9231 61.8494 32.1515 63.1423 32.1515C65.4729 32.1515 67.0632 34.5109 65.7676 36.4482C64.2595 38.7035 62.3577 40.5738 60.0623 42.059C56.4402 44.3601 52.2002 45.5107 47.3424 45.5107C43.2089 45.5107 39.4377 44.5519 36.0286 42.6343C32.6622 40.6741 29.9989 37.9682 28.0387 34.5165C26.0785 31.0649 25.0984 27.1658 25.0984 22.8193Z" fill="#3F0C2A"/>
<path fill-rule="evenodd" clip-rule="evenodd" d="M33.4358 7.28682C32.8414 6.93836 32.2272 6.63181 31.5934 6.36716C32.9036 5.04136 34.3819 3.89908 36.0285 2.9403C36.0675 2.91789 36.1065 2.89562 36.1456 2.87347C36.2226 2.91656 36.2995 2.96014 36.3761 3.00421C38.0368 3.93833 39.5255 5.05447 40.8424 6.35263C40.1987 6.62057 39.5742 6.93197 38.9688 7.28682C37.9575 7.87969 37.0353 8.57602 36.2023 9.37581C35.3693 8.57602 34.4472 7.87969 33.4358 7.28682Z" fill="#BE2A7A"/>
<path d="M3.54553 59.1275C2.89968 59.1275 2.30376 58.9777 1.75779 58.6781C1.21846 58.3718 0.789006 57.949 0.469409 57.4097C0.15647 56.8637 0 56.2511 0 55.572C0 54.8928 0.15647 54.2836 0.469409 53.7443C0.789006 53.205 1.21846 52.7855 1.75779 52.4859C2.30376 52.1796 2.89968 52.0265 3.54553 52.0265C4.19804 52.0265 4.79396 52.1796 5.33328 52.4859C5.87926 52.7855 6.30872 53.205 6.62166 53.7443C6.9346 54.2836 7.09106 54.8928 7.09106 55.572C7.09106 56.2511 6.9346 56.8637 6.62166 57.4097C6.30872 57.949 5.87926 58.3718 5.33328 58.6781C4.79396 58.9777 4.19804 59.1275 3.54553 59.1275ZM3.54553 58.1388C4.00495 58.1388 4.41444 58.0356 4.77398 57.8291C5.13353 57.6161 5.41318 57.3165 5.61293 56.9303C5.81933 56.5374 5.92254 56.0847 5.92254 55.572C5.92254 55.0593 5.81933 54.6099 5.61293 54.2237C5.41318 53.8375 5.13353 53.5412 4.77398 53.3348C4.41444 53.1284 4.00495 53.0252 3.54553 53.0252C3.08611 53.0252 2.67663 53.1284 2.31708 53.3348C1.95753 53.5412 1.67456 53.8375 1.46815 54.2237C1.2684 54.6099 1.16853 55.0593 1.16853 55.572C1.16853 56.0847 1.2684 56.5374 1.46815 56.9303C1.67456 57.3165 1.95753 57.6161 2.31708 57.8291C2.67663 58.0356 3.08611 58.1388 3.54553 58.1388Z" fill="black"/>
<path d="M10.988 53.4646C11.4207 53.4646 11.8069 53.5545 12.1465 53.7343C12.4927 53.9141 12.7624 54.1804 12.9555 54.5333C13.1486 54.8862 13.2451 55.3123 13.2451 55.8117V59.0576H12.1165V55.9815C12.1165 55.4888 11.9934 55.1126 11.747 54.8529C11.5006 54.5866 11.1644 54.4534 10.7383 54.4534C10.3121 54.4534 9.97256 54.5866 9.71955 54.8529C9.47319 55.1126 9.35002 55.4888 9.35002 55.9815V59.0576H8.21145V53.5545H9.35002V54.1837C9.53645 53.9574 9.77282 53.7809 10.0591 53.6544C10.3521 53.5279 10.6617 53.4646 10.988 53.4646Z" fill="black"/>
<path d="M15.836 51.6669V59.0576H14.6974V51.6669H15.836Z" fill="black"/>
<path d="M17.9101 52.8254C17.7037 52.8254 17.5306 52.7555 17.3907 52.6157C17.2509 52.4759 17.181 52.3028 17.181 52.0964C17.181 51.89 17.2509 51.7168 17.3907 51.577C17.5306 51.4372 17.7037 51.3673 17.9101 51.3673C18.1098 51.3673 18.2796 51.4372 18.4194 51.577C18.5593 51.7168 18.6292 51.89 18.6292 52.0964C18.6292 52.3028 18.5593 52.4759 18.4194 52.6157C18.2796 52.7555 18.1098 52.8254 17.9101 52.8254ZM18.4694 53.5545V59.0576H17.3308V53.5545H18.4694Z" fill="black"/>
<path d="M22.7407 53.4646C23.1735 53.4646 23.5597 53.5545 23.8993 53.7343C24.2455 53.9141 24.5152 54.1804 24.7082 54.5333C24.9013 54.8862 24.9979 55.3123 24.9979 55.8117V59.0576H23.8693V55.9815C23.8693 55.4888 23.7461 55.1126 23.4998 54.8529C23.2534 54.5866 22.9172 54.4534 22.491 54.4534C22.0649 54.4534 21.7253 54.5866 21.4723 54.8529C21.226 55.1126 21.1028 55.4888 21.1028 55.9815V59.0576H19.9642V53.5545H21.1028V54.1837C21.2892 53.9574 21.5256 53.7809 21.8119 53.6544C22.1049 53.5279 22.4145 53.4646 22.7407 53.4646Z" fill="black"/>
<path d="M31.4938 56.1712C31.4938 56.3776 31.4805 56.5641 31.4539 56.7305H27.2492C27.2825 57.17 27.4456 57.5229 27.7386 57.7892C28.0315 58.0555 28.3911 58.1887 28.8172 58.1887C29.4298 58.1887 29.8626 57.9323 30.1156 57.4197H31.344C31.1776 57.9257 30.8746 58.3418 30.4352 58.6681C30.0024 58.9877 29.4631 59.1475 28.8172 59.1475C28.2912 59.1475 27.8185 59.031 27.399 58.7979C26.9862 58.5582 26.6599 58.2253 26.4202 57.7992C26.1872 57.3664 26.0707 56.867 26.0707 56.3011C26.0707 55.7351 26.1839 55.2391 26.4102 54.8129C26.6433 54.3802 26.9662 54.0472 27.379 53.8142C27.7985 53.5812 28.2779 53.4646 28.8172 53.4646C29.3365 53.4646 29.7993 53.5778 30.2055 53.8042C30.6116 54.0306 30.9279 54.3502 31.1543 54.763C31.3806 55.1692 31.4938 55.6386 31.4938 56.1712ZM30.3053 55.8117C30.2987 55.3922 30.1489 55.056 29.8559 54.803C29.5629 54.5499 29.2001 54.4234 28.7673 54.4234C28.3744 54.4234 28.0382 54.5499 27.7585 54.803C27.4789 55.0493 27.3124 55.3856 27.2592 55.8117H30.3053Z" fill="black"/>
<path d="M34.8292 55.572C34.8292 54.8928 34.9856 54.2836 35.2986 53.7443C35.6182 53.205 36.0476 52.7855 36.5869 52.4859C37.1329 52.1796 37.7288 52.0265 38.3747 52.0265C39.1138 52.0265 39.7696 52.2096 40.3422 52.5758C40.9215 52.9353 41.341 53.448 41.6006 54.1138H40.2323C40.0526 53.7476 39.8029 53.4746 39.4833 53.2949C39.1637 53.1151 38.7942 53.0252 38.3747 53.0252C37.9153 53.0252 37.5058 53.1284 37.1462 53.3348C36.7867 53.5412 36.5037 53.8375 36.2973 54.2237C36.0976 54.6099 35.9977 55.0593 35.9977 55.572C35.9977 56.0847 36.0976 56.5341 36.2973 56.9203C36.5037 57.3065 36.7867 57.6061 37.1462 57.8192C37.5058 58.0256 37.9153 58.1288 38.3747 58.1288C38.7942 58.1288 39.1637 58.0389 39.4833 57.8591C39.8029 57.6793 40.0526 57.4063 40.2323 57.0401H41.6006C41.341 57.706 40.9215 58.2187 40.3422 58.5782C39.7696 58.9377 39.1138 59.1175 38.3747 59.1175C37.7222 59.1175 37.1263 58.9677 36.5869 58.6681C36.0476 58.3618 35.6182 57.939 35.2986 57.3997C34.9856 56.8604 34.8292 56.2511 34.8292 55.572Z" fill="black"/>
<path d="M45.3203 59.1475C44.801 59.1475 44.3316 59.031 43.9121 58.7979C43.4926 58.5582 43.163 58.2253 42.9233 57.7992C42.6836 57.3664 42.5638 56.867 42.5638 56.3011C42.5638 55.7418 42.687 55.2457 42.9333 54.8129C43.1797 54.3802 43.5159 54.0472 43.9421 53.8142C44.3682 53.5812 44.8442 53.4646 45.3703 53.4646C45.8963 53.4646 46.3723 53.5812 46.7985 53.8142C47.2246 54.0472 47.5608 54.3802 47.8072 54.8129C48.0535 55.2457 48.1767 55.7418 48.1767 56.3011C48.1767 56.8604 48.0502 57.3564 47.7972 57.7892C47.5442 58.222 47.198 58.5582 46.7585 58.7979C46.3257 59.031 45.8463 59.1475 45.3203 59.1475ZM45.3203 58.1587C45.6133 58.1587 45.8863 58.0888 46.1393 57.949C46.399 57.8092 46.6087 57.5994 46.7685 57.3198C46.9283 57.0401 47.0082 56.7006 47.0082 56.3011C47.0082 55.9016 46.9316 55.5653 46.7785 55.2923C46.6253 55.0127 46.4223 54.803 46.1692 54.6631C45.9162 54.5233 45.6432 54.4534 45.3503 54.4534C45.0573 54.4534 44.7843 54.5233 44.5313 54.6631C44.285 54.803 44.0885 55.0127 43.9421 55.2923C43.7956 55.5653 43.7223 55.9016 43.7223 56.3011C43.7223 56.8937 43.8721 57.3531 44.1718 57.6793C44.478 57.9989 44.8609 58.1587 45.3203 58.1587Z" fill="black"/>
<path d="M54.286 53.5545V59.0576H53.1474V58.4084C52.9676 58.6348 52.7313 58.8146 52.4383 58.9477C52.152 59.0742 51.8457 59.1375 51.5195 59.1375C51.0867 59.1375 50.6972 59.0476 50.3509 58.8678C50.0114 58.6881 49.7417 58.4217 49.542 58.0688C49.3489 57.716 49.2523 57.2898 49.2523 56.7905V53.5545H50.3809V56.6207C50.3809 57.1134 50.5041 57.4929 50.7504 57.7592C50.9968 58.0189 51.333 58.1487 51.7592 58.1487C52.1853 58.1487 52.5215 58.0189 52.7679 57.7592C53.0209 57.4929 53.1474 57.1134 53.1474 56.6207V53.5545H54.286Z" fill="black"/>
<path d="M56.9268 54.3535C57.0932 54.0739 57.313 53.8575 57.586 53.7043C57.8656 53.5445 58.1952 53.4646 58.5747 53.4646V54.6432H58.2851C57.839 54.6432 57.4994 54.7563 57.2664 54.9827C57.04 55.2091 56.9268 55.602 56.9268 56.1612V59.0576H55.7882V53.5545H56.9268V54.3535Z" fill="black"/>
<path d="M61.6188 59.1475C61.186 59.1475 60.7965 59.0709 60.4502 58.9178C60.1107 58.758 59.841 58.5449 59.6413 58.2786C59.4415 58.0056 59.335 57.7026 59.3217 57.3697H60.5002C60.5201 57.6028 60.63 57.7992 60.8298 57.959C61.0362 58.1121 61.2925 58.1887 61.5988 58.1887C61.9184 58.1887 62.1647 58.1288 62.3379 58.0089C62.5176 57.8824 62.6075 57.7226 62.6075 57.5295C62.6075 57.3231 62.5076 57.17 62.3079 57.0701C62.1148 56.9702 61.8052 56.8604 61.3791 56.7405C60.9663 56.6273 60.63 56.5175 60.3703 56.4109C60.1107 56.3044 59.8843 56.1413 59.6912 55.9215C59.5048 55.7018 59.4115 55.4122 59.4115 55.0526C59.4115 54.7597 59.4981 54.4933 59.6712 54.2536C59.8443 54.0073 60.0907 53.8142 60.4103 53.6744C60.7365 53.5346 61.1094 53.4646 61.5289 53.4646C62.1548 53.4646 62.6575 53.6244 63.037 53.944C63.4232 54.257 63.6296 54.6864 63.6562 55.2324H62.5176C62.4977 54.9861 62.3978 54.7896 62.218 54.6432C62.0382 54.4967 61.7952 54.4234 61.4889 54.4234C61.1893 54.4234 60.9596 54.48 60.7998 54.5932C60.64 54.7064 60.5601 54.8562 60.5601 55.0427C60.5601 55.1891 60.6134 55.3123 60.7199 55.4122C60.8264 55.5121 60.9563 55.592 61.1094 55.6519C61.2625 55.7052 61.4889 55.7751 61.7886 55.8616C62.188 55.9682 62.5143 56.078 62.7673 56.1912C63.027 56.2977 63.25 56.4575 63.4365 56.6706C63.6229 56.8837 63.7194 57.1666 63.7261 57.5195C63.7261 57.8325 63.6395 58.1121 63.4664 58.3585C63.2933 58.6048 63.047 58.7979 62.7274 58.9377C62.4144 59.0776 62.0449 59.1475 61.6188 59.1475Z" fill="black"/>
<path d="M70 56.1712C70 56.3776 69.9867 56.5641 69.96 56.7305H65.7553C65.7886 57.17 65.9518 57.5229 66.2447 57.7892C66.5377 58.0555 66.8972 58.1887 67.3234 58.1887C67.9359 58.1887 68.3687 57.9323 68.6217 57.4197H69.8502C69.6837 57.9257 69.3808 58.3418 68.9413 58.6681C68.5085 58.9877 67.9692 59.1475 67.3234 59.1475C66.7974 59.1475 66.3246 59.031 65.9052 58.7979C65.4923 58.5582 65.1661 58.2253 64.9264 57.7992C64.6934 57.3664 64.5768 56.867 64.5768 56.3011C64.5768 55.7351 64.69 55.2391 64.9164 54.8129C65.1494 54.3802 65.4724 54.0472 65.8852 53.8142C66.3046 53.5812 66.784 53.4646 67.3234 53.4646C67.8427 53.4646 68.3055 53.5778 68.7116 53.8042C69.1178 54.0306 69.434 54.3502 69.6604 54.763C69.8868 55.1692 70 55.6386 70 56.1712ZM68.8115 55.8117C68.8048 55.3922 68.655 55.056 68.3621 54.803C68.0691 54.5499 67.7062 54.4234 67.2734 54.4234C66.8806 54.4234 66.5443 54.5499 66.2647 54.803C65.9851 55.0493 65.8186 55.3856 65.7653 55.8117H68.8115Z" fill="black"/>
</svg>
