<svg width="250" height="50" viewBox="0 0 250 50" fill="none" xmlns="http://www.w3.org/2000/svg">
<circle cx="125" cy="25" r="21.875" fill="url(#paint0_linear_31_203)"/>
<path d="M135.917 15.9512C136.111 14.6927 134.915 13.6993 133.796 14.1906L111.508 23.9763C110.705 24.3286 110.764 25.5442 111.596 25.8092L116.192 27.2729C117.07 27.5523 118.02 27.4078 118.786 26.8786L129.148 19.7192C129.461 19.5033 129.802 19.9476 129.535 20.2229L122.075 27.9135C121.352 28.6595 121.495 29.9237 122.366 30.4695L130.717 35.7067C131.654 36.2941 132.859 35.704 133.034 34.5721L135.917 15.9512Z" fill="white"/>
<path fill-rule="evenodd" clip-rule="evenodd" d="M225 48.4375C237.081 48.4375 246.875 38.6437 246.875 26.5625C246.875 14.4813 237.081 4.6875 225 4.6875C212.919 4.6875 203.125 14.4813 203.125 26.5625C203.125 30.4857 204.158 34.1678 205.966 37.3515L203.125 48.4375L214.554 45.7872C217.658 47.4772 221.217 48.4375 225 48.4375ZM225 45.0721C235.223 45.0721 243.51 36.7851 243.51 26.5625C243.51 16.3399 235.223 8.05288 225 8.05288C214.777 8.05288 206.49 16.3399 206.49 26.5625C206.49 30.5095 207.726 34.1679 209.831 37.1722L208.173 43.3894L214.5 41.8077C217.483 43.8665 221.101 45.0721 225 45.0721Z" fill="#BFC8D0"/>
<path d="M243.75 25C243.75 35.3553 235.355 43.75 225 43.75C221.05 43.75 217.386 42.5287 214.364 40.4432L207.955 42.0455L209.634 35.7475C207.501 32.7042 206.25 28.9982 206.25 25C206.25 14.6447 214.645 6.25 225 6.25C235.355 6.25 243.75 14.6447 243.75 25Z" fill="url(#paint1_linear_31_203)"/>
<path fill-rule="evenodd" clip-rule="evenodd" d="M225 46.875C237.081 46.875 246.875 37.0812 246.875 25C246.875 12.9188 237.081 3.125 225 3.125C212.919 3.125 203.125 12.9188 203.125 25C203.125 28.9232 204.158 32.6053 205.966 35.789L203.125 46.875L214.554 44.2247C217.658 45.9147 221.217 46.875 225 46.875ZM225 43.5096C235.223 43.5096 243.51 35.2226 243.51 25C243.51 14.7774 235.223 6.49038 225 6.49038C214.777 6.49038 206.49 14.7774 206.49 25C206.49 28.947 207.726 32.6054 209.831 35.6097L208.173 41.8269L214.5 40.2452C217.483 42.304 221.101 43.5096 225 43.5096Z" fill="white"/>
<path d="M219.531 14.8438C219.011 13.7991 218.213 13.8916 217.407 13.8916C215.967 13.8916 213.721 15.617 213.721 18.8282C213.721 21.46 214.88 24.3409 218.788 28.6504C222.559 32.8094 227.515 34.9608 231.628 34.8876C235.742 34.8143 236.589 31.2743 236.589 30.0788C236.589 29.5489 236.26 29.2845 236.033 29.2127C234.631 28.5399 232.046 27.2863 231.458 27.0508C230.869 26.8153 230.562 27.1339 230.371 27.3072C229.838 27.8156 228.78 29.3139 228.418 29.6509C228.056 29.9879 227.516 29.8174 227.291 29.69C226.465 29.3582 224.223 28.3612 222.437 26.6293C220.227 24.4873 220.097 23.7504 219.681 23.0944C219.348 22.5696 219.592 22.2476 219.714 22.1069C220.19 21.5576 220.848 20.7095 221.143 20.2881C221.437 19.8666 221.203 19.2268 221.063 18.8282C220.459 17.1143 219.947 15.6795 219.531 14.8438Z" fill="white"/>
<rect x="3.125" y="3.125" width="43.75" height="43.75" rx="6" fill="url(#paint2_radial_31_203)"/>
<rect x="3.125" y="3.125" width="43.75" height="43.75" rx="6" fill="url(#paint3_radial_31_203)"/>
<rect x="3.125" y="3.125" width="43.75" height="43.75" rx="6" fill="url(#paint4_radial_31_203)"/>
<path d="M35.9375 16.4062C35.9375 17.7007 34.8882 18.75 33.5938 18.75C32.2993 18.75 31.25 17.7007 31.25 16.4062C31.25 15.1118 32.2993 14.0625 33.5938 14.0625C34.8882 14.0625 35.9375 15.1118 35.9375 16.4062Z" fill="white"/>
<path fill-rule="evenodd" clip-rule="evenodd" d="M25 32.8125C29.3147 32.8125 32.8125 29.3147 32.8125 25C32.8125 20.6853 29.3147 17.1875 25 17.1875C20.6853 17.1875 17.1875 20.6853 17.1875 25C17.1875 29.3147 20.6853 32.8125 25 32.8125ZM25 29.6875C27.5888 29.6875 29.6875 27.5888 29.6875 25C29.6875 22.4112 27.5888 20.3125 25 20.3125C22.4112 20.3125 20.3125 22.4112 20.3125 25C20.3125 27.5888 22.4112 29.6875 25 29.6875Z" fill="white"/>
<path fill-rule="evenodd" clip-rule="evenodd" d="M9.375 24.375C9.375 19.1245 9.375 16.4993 10.3968 14.4938C11.2956 12.7298 12.7298 11.2956 14.4938 10.3968C16.4993 9.375 19.1245 9.375 24.375 9.375H25.625C30.8755 9.375 33.5007 9.375 35.5062 10.3968C37.2702 11.2956 38.7044 12.7298 39.6032 14.4938C40.625 16.4993 40.625 19.1245 40.625 24.375V25.625C40.625 30.8755 40.625 33.5007 39.6032 35.5062C38.7044 37.2702 37.2702 38.7044 35.5062 39.6032C33.5007 40.625 30.8755 40.625 25.625 40.625H24.375C19.1245 40.625 16.4993 40.625 14.4938 39.6032C12.7298 38.7044 11.2956 37.2702 10.3968 35.5062C9.375 33.5007 9.375 30.8755 9.375 25.625V24.375ZM24.375 12.5H25.625C28.3018 12.5 30.1215 12.5024 31.528 12.6173C32.8981 12.7293 33.5987 12.9322 34.0874 13.1812C35.2635 13.7804 36.2196 14.7365 36.8188 15.9126C37.0678 16.4013 37.2707 17.1019 37.3827 18.472C37.4976 19.8785 37.5 21.6982 37.5 24.375V25.625C37.5 28.3018 37.4976 30.1215 37.3827 31.528C37.2707 32.8981 37.0678 33.5987 36.8188 34.0874C36.2196 35.2635 35.2635 36.2196 34.0874 36.8188C33.5987 37.0678 32.8981 37.2707 31.528 37.3827C30.1215 37.4976 28.3018 37.5 25.625 37.5H24.375C21.6982 37.5 19.8785 37.4976 18.472 37.3827C17.1019 37.2707 16.4013 37.0678 15.9126 36.8188C14.7365 36.2196 13.7804 35.2635 13.1812 34.0874C12.9322 33.5987 12.7293 32.8981 12.6173 31.528C12.5024 30.1215 12.5 28.3018 12.5 25.625V24.375C12.5 21.6982 12.5024 19.8785 12.6173 18.472C12.7293 17.1019 12.9322 16.4013 13.1812 15.9126C13.7804 14.7365 14.7365 13.7804 15.9126 13.1812C16.4013 12.9322 17.1019 12.7293 18.472 12.6173C19.8785 12.5024 21.6982 12.5 24.375 12.5Z" fill="white"/>
<defs>
<linearGradient id="paint0_linear_31_203" x1="125" y1="3.125" x2="125" y2="46.875" gradientUnits="userSpaceOnUse">
<stop stop-color="#37BBFE"/>
<stop offset="1" stop-color="#007DBB"/>
</linearGradient>
<linearGradient id="paint1_linear_31_203" x1="241.406" y1="10.9375" x2="206.25" y2="43.75" gradientUnits="userSpaceOnUse">
<stop stop-color="#5BD066"/>
<stop offset="1" stop-color="#27B43E"/>
</linearGradient>
<radialGradient id="paint2_radial_31_203" cx="0" cy="0" r="1" gradientUnits="userSpaceOnUse" gradientTransform="translate(18.75 35.9375) rotate(-55.3758) scale(39.8744)">
<stop stop-color="#B13589"/>
<stop offset="0.79309" stop-color="#C62F94"/>
<stop offset="1" stop-color="#8A3AC8"/>
</radialGradient>
<radialGradient id="paint3_radial_31_203" cx="0" cy="0" r="1" gradientUnits="userSpaceOnUse" gradientTransform="translate(17.1875 48.4375) rotate(-65.1363) scale(35.3035)">
<stop stop-color="#E0E8B7"/>
<stop offset="0.444662" stop-color="#FB8A2E"/>
<stop offset="0.71474" stop-color="#E2425C"/>
<stop offset="1" stop-color="#E2425C" stop-opacity="0"/>
</radialGradient>
<radialGradient id="paint4_radial_31_203" cx="0" cy="0" r="1" gradientUnits="userSpaceOnUse" gradientTransform="translate(0.781253 4.6875) rotate(-8.1301) scale(60.767 12.9974)">
<stop offset="0.156701" stop-color="#406ADC"/>
<stop offset="0.467799" stop-color="#6A45BE"/>
<stop offset="1" stop-color="#6A45BE" stop-opacity="0"/>
</radialGradient>
</defs>
</svg>
