<svg width="14" height="11" viewBox="0 0 14 11" fill="none" xmlns="http://www.w3.org/2000/svg">
<path d="M6.19159 1.918C5.51692 2.25533 4.91892 2.7 4.39759 3.252C3.90692 3.77333 3.56959 4.46333 3.38559 5.322L3.98359 5.414C4.68892 5.47533 5.19492 5.75133 5.50159 6.242C5.83892 6.73267 6.00759 7.28467 6.00759 7.898C6.00759 8.51133 5.80825 9.07867 5.40959 9.6C5.04159 10.0907 4.45892 10.336 3.66159 10.336C3.35492 10.336 3.03292 10.2747 2.69559 10.152C2.35825 10.0293 2.03625 9.83 1.72959 9.554C1.45359 9.278 1.22359 8.89467 1.03959 8.404C0.855586 7.91333 0.763586 7.3 0.763586 6.564C0.763586 5.21466 1.16225 4.00333 1.95959 2.93C2.75692 1.85667 3.76892 0.997999 4.99559 0.353999L6.19159 1.918ZM13.4136 1.918C12.7389 2.25533 12.1409 2.7 11.6196 3.252C11.1289 3.77333 10.7916 4.46333 10.6076 5.322L11.2056 5.414C11.9109 5.47533 12.4169 5.75133 12.7236 6.242C13.0609 6.73267 13.2296 7.28467 13.2296 7.898C13.2296 8.51133 13.0303 9.07867 12.6316 9.6C12.2636 10.0907 11.6809 10.336 10.8836 10.336C10.5769 10.336 10.2549 10.2747 9.91759 10.152C9.58025 10.0293 9.25825 9.83 8.95159 9.554C8.67559 9.278 8.44559 8.89467 8.26159 8.404C8.07759 7.91333 7.98559 7.3 7.98559 6.564C7.98559 5.21466 8.38425 4.00333 9.18159 2.93C9.97892 1.85667 10.9909 0.997999 12.2176 0.353999L13.4136 1.918Z" fill="black"/>
</svg>
