<svg width="320" height="100" viewBox="0 0 320 100" fill="none" xmlns="http://www.w3.org/2000/svg">
<rect width="320" height="100" rx="30" fill="#FF6EBC"/>
<path d="M99.9417 59V42.9H107.742C109.342 42.9 110.525 43.275 111.292 44.025C112.058 44.775 112.442 45.8333 112.442 47.2C112.442 48.0667 112.267 48.8 111.917 49.4C111.567 49.9833 111.1 50.425 110.517 50.725C111.3 50.9417 111.917 51.3333 112.367 51.9C112.833 52.45 113.067 53.2667 113.067 54.35C113.067 55.9167 112.642 57.0833 111.792 57.85C110.958 58.6167 109.725 59 108.092 59H99.9417ZM102.667 49.775H107.367C108.283 49.775 108.933 49.5667 109.317 49.15C109.717 48.7167 109.917 48.1417 109.917 47.425C109.917 46.5917 109.717 45.975 109.317 45.575C108.917 45.1583 108.167 44.95 107.067 44.95H102.667V49.775ZM102.667 57H107.517C108.483 57 109.192 56.8 109.642 56.4C110.092 55.9833 110.317 55.2667 110.317 54.25C110.317 53.4167 110.092 52.8 109.642 52.4C109.208 51.9833 108.408 51.775 107.242 51.775H102.667V57ZM119.413 59.25C118.663 59.25 117.963 59.1167 117.313 58.85C116.68 58.5833 116.172 58.1833 115.788 57.65C115.405 57.1 115.213 56.425 115.213 55.625C115.213 54.4917 115.597 53.5833 116.363 52.9C117.147 52.2 118.347 51.85 119.963 51.85H123.763V51.325C123.763 50.7583 123.672 50.3083 123.488 49.975C123.322 49.6417 123.005 49.4 122.538 49.25C122.088 49.1 121.422 49.025 120.538 49.025C119.138 49.025 117.83 49.2333 116.613 49.65V47.625C117.147 47.4083 117.797 47.2333 118.563 47.1C119.33 46.9667 120.155 46.9 121.038 46.9C122.772 46.9 124.088 47.25 124.988 47.95C125.905 48.65 126.363 49.7917 126.363 51.375V59H124.038L123.863 57.8C123.38 58.2667 122.78 58.625 122.063 58.875C121.363 59.125 120.48 59.25 119.413 59.25ZM120.138 57.3C120.955 57.3 121.663 57.1667 122.263 56.9C122.88 56.6167 123.38 56.2417 123.763 55.775V53.7H120.013C119.213 53.7 118.63 53.8583 118.263 54.175C117.913 54.475 117.738 54.9417 117.738 55.575C117.738 56.1917 117.947 56.6333 118.363 56.9C118.78 57.1667 119.372 57.3 120.138 57.3ZM130.937 63.4C130.037 63.4 129.27 63.2833 128.637 63.05V61.025C128.92 61.125 129.179 61.1917 129.412 61.225C129.662 61.2583 129.912 61.275 130.162 61.275C130.679 61.275 131.095 61.1917 131.412 61.025C131.729 60.8583 132.004 60.5917 132.237 60.225C132.487 59.875 132.754 59.4167 133.037 58.85L127.762 47.15H130.587L134.387 55.95L138.237 47.15H141.037L136.212 58.325C135.795 59.325 135.345 60.2 134.862 60.95C134.395 61.7167 133.845 62.3167 133.212 62.75C132.595 63.1833 131.837 63.4 130.937 63.4ZM145.268 59.25C144.518 59.25 143.818 59.1167 143.168 58.85C142.534 58.5833 142.026 58.1833 141.643 57.65C141.259 57.1 141.068 56.425 141.068 55.625C141.068 54.4917 141.451 53.5833 142.218 52.9C143.001 52.2 144.201 51.85 145.818 51.85H149.618V51.325C149.618 50.7583 149.526 50.3083 149.343 49.975C149.176 49.6417 148.859 49.4 148.393 49.25C147.943 49.1 147.276 49.025 146.393 49.025C144.993 49.025 143.684 49.2333 142.468 49.65V47.625C143.001 47.4083 143.651 47.2333 144.418 47.1C145.184 46.9667 146.009 46.9 146.893 46.9C148.626 46.9 149.943 47.25 150.843 47.95C151.759 48.65 152.218 49.7917 152.218 51.375V59H149.893L149.718 57.8C149.234 58.2667 148.634 58.625 147.918 58.875C147.218 59.125 146.334 59.25 145.268 59.25ZM145.993 57.3C146.809 57.3 147.518 57.1667 148.118 56.9C148.734 56.6167 149.234 56.2417 149.618 55.775V53.7H145.868C145.068 53.7 144.484 53.8583 144.118 54.175C143.768 54.475 143.593 54.9417 143.593 55.575C143.593 56.1917 143.801 56.6333 144.218 56.9C144.634 57.1667 145.226 57.3 145.993 57.3ZM155.24 59V47.15H157.74L157.89 48.525C158.456 48.1583 159.131 47.825 159.915 47.525C160.698 47.225 161.473 47.0167 162.24 46.9V48.975C161.773 49.0583 161.265 49.1833 160.715 49.35C160.181 49.5 159.673 49.675 159.19 49.875C158.706 50.0583 158.298 50.25 157.965 50.45V59H155.24ZM174.861 59.25C172.777 59.25 171.102 58.9833 169.836 58.45V56.05C170.552 56.3167 171.319 56.5333 172.136 56.7C172.969 56.8667 173.794 56.95 174.611 56.95C175.894 56.95 176.852 56.8 177.486 56.5C178.136 56.2 178.461 55.6 178.461 54.7C178.461 54.15 178.327 53.7083 178.061 53.375C177.794 53.0417 177.352 52.7583 176.736 52.525C176.119 52.275 175.269 52.0167 174.186 51.75C172.452 51.3 171.236 50.7333 170.536 50.05C169.836 49.35 169.486 48.3917 169.486 47.175C169.486 45.7583 170.002 44.65 171.036 43.85C172.069 43.05 173.611 42.65 175.661 42.65C176.594 42.65 177.469 42.7167 178.286 42.85C179.119 42.9833 179.769 43.1333 180.236 43.3V45.7C178.969 45.2167 177.569 44.975 176.036 44.975C174.836 44.975 173.902 45.1333 173.236 45.45C172.569 45.7667 172.236 46.3417 172.236 47.175C172.236 47.6583 172.352 48.05 172.586 48.35C172.819 48.65 173.219 48.9083 173.786 49.125C174.369 49.3417 175.169 49.5833 176.186 49.85C177.502 50.1833 178.519 50.5833 179.236 51.05C179.969 51.5 180.477 52.0333 180.761 52.65C181.061 53.25 181.211 53.9333 181.211 54.7C181.211 56.1167 180.686 57.2333 179.636 58.05C178.586 58.85 176.994 59.25 174.861 59.25ZM189.853 59.25C187.786 59.25 186.186 58.7417 185.053 57.725C183.919 56.7083 183.353 55.15 183.353 53.05C183.353 51.15 183.836 49.65 184.803 48.55C185.769 47.45 187.236 46.9 189.203 46.9C191.003 46.9 192.353 47.375 193.253 48.325C194.169 49.2583 194.628 50.4667 194.628 51.95V54.15H185.953C186.086 55.3 186.503 56.0917 187.203 56.525C187.903 56.9583 188.969 57.175 190.403 57.175C191.003 57.175 191.619 57.1167 192.253 57C192.886 56.8833 193.436 56.7333 193.903 56.55V58.55C193.369 58.7833 192.753 58.9583 192.053 59.075C191.369 59.1917 190.636 59.25 189.853 59.25ZM185.953 52.375H192.228V51.55C192.228 50.7333 192.003 50.1 191.553 49.65C191.103 49.1833 190.344 48.95 189.278 48.95C188.011 48.95 187.136 49.225 186.653 49.775C186.186 50.325 185.953 51.1917 185.953 52.375ZM197.281 59V42.15H200.006V51.9L204.981 47.15H208.106L203.281 51.925L208.381 59H205.506L201.581 53.375L200.006 54.875V59H197.281ZM213.041 59.25C212.291 59.25 211.591 59.1167 210.941 58.85C210.308 58.5833 209.799 58.1833 209.416 57.65C209.033 57.1 208.841 56.425 208.841 55.625C208.841 54.4917 209.224 53.5833 209.991 52.9C210.774 52.2 211.974 51.85 213.591 51.85H217.391V51.325C217.391 50.7583 217.299 50.3083 217.116 49.975C216.949 49.6417 216.633 49.4 216.166 49.25C215.716 49.1 215.049 49.025 214.166 49.025C212.766 49.025 211.458 49.2333 210.241 49.65V47.625C210.774 47.4083 211.424 47.2333 212.191 47.1C212.958 46.9667 213.783 46.9 214.666 46.9C216.399 46.9 217.716 47.25 218.616 47.95C219.533 48.65 219.991 49.7917 219.991 51.375V59H217.666L217.491 57.8C217.008 58.2667 216.408 58.625 215.691 58.875C214.991 59.125 214.108 59.25 213.041 59.25ZM213.766 57.3C214.583 57.3 215.291 57.1667 215.891 56.9C216.508 56.6167 217.008 56.2417 217.391 55.775V53.7H213.641C212.841 53.7 212.258 53.8583 211.891 54.175C211.541 54.475 211.366 54.9417 211.366 55.575C211.366 56.1917 211.574 56.6333 211.991 56.9C212.408 57.1667 212.999 57.3 213.766 57.3ZM223.013 59V47.15H225.513L225.663 48.525C226.23 48.1583 226.905 47.825 227.688 47.525C228.471 47.225 229.246 47.0167 230.013 46.9V48.975C229.546 49.0583 229.038 49.1833 228.488 49.35C227.955 49.5 227.446 49.675 226.963 49.875C226.48 50.0583 226.071 50.25 225.738 50.45V59H223.013ZM234.941 59.25C234.191 59.25 233.491 59.1167 232.841 58.85C232.207 58.5833 231.699 58.1833 231.316 57.65C230.932 57.1 230.741 56.425 230.741 55.625C230.741 54.4917 231.124 53.5833 231.891 52.9C232.674 52.2 233.874 51.85 235.491 51.85H239.291V51.325C239.291 50.7583 239.199 50.3083 239.016 49.975C238.849 49.6417 238.532 49.4 238.066 49.25C237.616 49.1 236.949 49.025 236.066 49.025C234.666 49.025 233.357 49.2333 232.141 49.65V47.625C232.674 47.4083 233.324 47.2333 234.091 47.1C234.857 46.9667 235.682 46.9 236.566 46.9C238.299 46.9 239.616 47.25 240.516 47.95C241.432 48.65 241.891 49.7917 241.891 51.375V59H239.566L239.391 57.8C238.907 58.2667 238.307 58.625 237.591 58.875C236.891 59.125 236.007 59.25 234.941 59.25ZM235.666 57.3C236.482 57.3 237.191 57.1667 237.791 56.9C238.407 56.6167 238.907 56.2417 239.291 55.775V53.7H235.541C234.741 53.7 234.157 53.8583 233.791 54.175C233.441 54.475 233.266 54.9417 233.266 55.575C233.266 56.1917 233.474 56.6333 233.891 56.9C234.307 57.1667 234.899 57.3 235.666 57.3ZM244.912 59V47.15H247.412L247.537 48.4C248.071 47.9833 248.704 47.6333 249.437 47.35C250.187 47.05 251.012 46.9 251.912 46.9C253.446 46.9 254.562 47.2583 255.262 47.975C255.962 48.6917 256.312 49.8083 256.312 51.325V59H253.612V51.45C253.612 50.5333 253.421 49.8917 253.037 49.525C252.671 49.1583 251.971 48.975 250.937 48.975C250.321 48.975 249.712 49.1 249.112 49.35C248.529 49.6 248.037 49.925 247.637 50.325V59H244.912ZM264.166 63.4C263.282 63.4 262.399 63.3417 261.516 63.225C260.632 63.125 259.882 62.9667 259.266 62.75V60.65C259.932 60.8667 260.699 61.0333 261.566 61.15C262.432 61.2667 263.257 61.325 264.041 61.325C265.241 61.325 266.116 61.2583 266.666 61.125C267.216 60.9917 267.491 60.6917 267.491 60.225C267.491 59.875 267.357 59.625 267.091 59.475C266.824 59.3417 266.316 59.275 265.566 59.275H262.366C260.216 59.275 259.141 58.5167 259.141 57C259.141 56.5167 259.282 56.0667 259.566 55.65C259.849 55.2333 260.299 54.9167 260.916 54.7C260.232 54.3667 259.724 53.9083 259.391 53.325C259.074 52.7417 258.916 52.0417 258.916 51.225C258.916 49.7083 259.366 48.6083 260.266 47.925C261.182 47.2417 262.549 46.9 264.366 46.9C264.749 46.9 265.149 46.9333 265.566 47C265.982 47.05 266.307 47.1 266.541 47.15H270.891L270.816 48.925H268.816C269.132 49.1917 269.366 49.525 269.516 49.925C269.666 50.325 269.741 50.7583 269.741 51.225C269.741 52.4917 269.357 53.4917 268.591 54.225C267.824 54.9417 266.666 55.3 265.116 55.3C264.849 55.3 264.599 55.2917 264.366 55.275C264.149 55.2417 263.907 55.2083 263.641 55.175C263.141 55.225 262.691 55.3583 262.291 55.575C261.891 55.7917 261.691 56.0833 261.691 56.45C261.691 56.7 261.791 56.8833 261.991 57C262.191 57.1 262.524 57.15 262.991 57.15H266.316C267.499 57.15 268.407 57.4083 269.041 57.925C269.691 58.425 270.016 59.1583 270.016 60.125C270.016 61.2917 269.507 62.125 268.491 62.625C267.491 63.1417 266.049 63.4 264.166 63.4ZM264.366 53.575C265.449 53.575 266.199 53.3917 266.616 53.025C267.049 52.6583 267.266 52.0333 267.266 51.15C267.266 50.2667 267.049 49.625 266.616 49.225C266.199 48.825 265.449 48.625 264.366 48.625C263.349 48.625 262.607 48.8167 262.141 49.2C261.674 49.5833 261.441 50.2333 261.441 51.15C261.441 52 261.657 52.6167 262.091 53C262.541 53.3833 263.299 53.575 264.366 53.575Z" fill="#3F0C2A"/>
<path d="M83.625 37.8438H57.375C56.5063 37.8487 55.6745 38.196 55.0602 38.8102C54.446 39.4245 54.0987 40.2563 54.0938 41.125V59.875C54.0987 60.7437 54.446 61.5755 55.0602 62.1898C55.6745 62.804 56.5063 63.1513 57.375 63.1562H83.625C84.4937 63.1513 85.3255 62.804 85.9398 62.1898C86.554 61.5755 86.9013 60.7437 86.9062 59.875V41.125C86.9013 40.2563 86.554 39.4245 85.9398 38.8102C85.3255 38.196 84.4937 37.8487 83.625 37.8438ZM84.0938 41.125V44.2563H83.7C83.4759 44.2843 83.2491 44.2843 83.025 44.2563H82.7812C82.5695 44.2137 82.3623 44.1509 82.1625 44.0687H81.9375C81.6697 43.9391 81.4282 43.7611 81.225 43.5437C80.9468 43.2692 80.7258 42.9422 80.5745 42.5818C80.4233 42.2214 80.3448 41.8346 80.3438 41.4438C80.3443 41.1834 80.3821 40.9245 80.4562 40.675H83.625C83.7461 40.6749 83.8626 40.7217 83.95 40.8056C84.0374 40.8895 84.0889 41.004 84.0938 41.125ZM57.375 40.6562H60.5438C60.6179 40.9058 60.6557 41.1647 60.6562 41.425C60.6552 41.8159 60.5767 42.2026 60.4255 42.5631C60.2742 42.9235 60.0532 43.2504 59.775 43.525C59.5669 43.7367 59.3264 43.914 59.0625 44.05H58.8187C58.6352 44.1405 58.4394 44.2037 58.2375 44.2375H57.975C57.7509 44.2655 57.5241 44.2655 57.3 44.2375H56.9062V41.125C56.9062 41.0007 56.9556 40.8815 57.0435 40.7935C57.1315 40.7056 57.2507 40.6562 57.375 40.6562ZM56.9062 59.875V56.7437H57.3C57.5241 56.7157 57.7509 56.7157 57.975 56.7437H58.2187C58.4326 56.7776 58.6408 56.8407 58.8375 56.9313H59.0625C59.3264 57.0673 59.5669 57.2445 59.775 57.4562C60.0532 57.7308 60.2742 58.0578 60.4255 58.4182C60.5767 58.7786 60.6552 59.1654 60.6562 59.5562C60.6557 59.8166 60.6179 60.0755 60.5438 60.325H57.375C57.2539 60.3251 57.1374 60.2783 57.05 60.1944C56.9626 60.1105 56.9111 59.996 56.9062 59.875ZM63.4125 60.3438C63.4318 60.0879 63.4318 59.8309 63.4125 59.575C63.4195 58.8137 63.2719 58.0588 62.9786 57.3562C62.6853 56.6536 62.2525 56.0179 61.7062 55.4875C61.4302 55.208 61.1218 54.9625 60.7875 54.7563L60.4688 54.55C60.2498 54.437 60.0244 54.3368 59.7937 54.25L59.4188 54.1C59.0936 54.0044 58.7613 53.9354 58.425 53.8938C58.2317 53.8745 58.037 53.8745 57.8438 53.8938H56.9062V47.1625H58.5C58.7544 47.1191 59.0051 47.0565 59.25 46.975L59.6625 46.8438C59.9491 46.7459 60.2254 46.6203 60.4875 46.4688L60.7875 46.3C61.1374 46.07 61.464 45.8062 61.7625 45.5125C62.3087 44.9821 62.7416 44.3464 63.0349 43.6438C63.3282 42.9412 63.4758 42.1863 63.4688 41.425C63.488 41.1691 63.488 40.9121 63.4688 40.6562H77.6438C77.6245 40.9121 77.6245 41.1691 77.6438 41.425C77.6367 42.1863 77.7843 42.9412 78.0776 43.6438C78.3709 44.3464 78.8038 44.9821 79.35 45.5125C79.6436 45.8117 79.9707 46.076 80.325 46.3L80.625 46.4688C80.8871 46.6203 81.1634 46.7459 81.45 46.8438L81.8625 46.975C82.114 47.051 82.371 47.1075 82.6312 47.1438H84.2062V53.8188H83.2687C83.0754 53.8002 82.8808 53.8002 82.6875 53.8188C82.3512 53.8604 82.0189 53.9294 81.6937 54.025L81.3188 54.175C81.0681 54.2719 80.8239 54.3847 80.5875 54.5125L80.2687 54.7188C79.9345 54.925 79.626 55.1705 79.35 55.45C78.8038 55.9804 78.3709 56.6161 78.0776 57.3187C77.7843 58.0213 77.6367 58.7762 77.6438 59.5375C77.6245 59.7934 77.6245 60.0504 77.6438 60.3062L63.4125 60.3438ZM83.625 60.3438H80.4562C80.3821 60.0942 80.3443 59.8353 80.3438 59.575C80.3448 59.1841 80.4233 58.7974 80.5745 58.4369C80.7258 58.0765 80.9468 57.7496 81.225 57.475C81.4282 57.2577 81.6697 57.0797 81.9375 56.95H82.1625C82.3632 56.8704 82.5701 56.8077 82.7812 56.7625H83.025C83.2491 56.7345 83.4759 56.7345 83.7 56.7625H84.0938V59.875C84.0938 59.9993 84.0444 60.1185 83.9565 60.2065C83.8685 60.2944 83.7493 60.3438 83.625 60.3438Z" fill="#3F0C2A"/>
<path d="M70.5 43.9375C69.2021 43.9375 67.9333 44.3224 66.8541 45.0435C65.7749 45.7646 64.9337 46.7895 64.437 47.9886C63.9403 49.1878 63.8104 50.5073 64.0636 51.7803C64.3168 53.0533 64.9418 54.2226 65.8596 55.1404C66.7774 56.0582 67.9467 56.6832 69.2197 56.9364C70.4927 57.1896 71.8122 57.0597 73.0114 56.563C74.2105 56.0663 75.2354 55.2251 75.9565 54.1459C76.6776 53.0667 77.0625 51.7979 77.0625 50.5C77.0625 48.7595 76.3711 47.0903 75.1404 45.8596C73.9097 44.6289 72.2405 43.9375 70.5 43.9375ZM70.5 54.25C69.7583 54.25 69.0333 54.0301 68.4166 53.618C67.7999 53.206 67.3193 52.6203 67.0355 51.9351C66.7516 51.2498 66.6774 50.4958 66.8221 49.7684C66.9668 49.041 67.3239 48.3728 67.8484 47.8484C68.3728 47.3239 69.041 46.9667 69.7684 46.8221C70.4958 46.6774 71.2498 46.7516 71.9351 47.0355C72.6203 47.3193 73.206 47.7999 73.618 48.4166C74.0301 49.0333 74.25 49.7583 74.25 50.5C74.25 51.4946 73.8549 52.4484 73.1517 53.1516C72.4484 53.8549 71.4946 54.25 70.5 54.25Z" fill="#3F0C2A"/>
</svg>
